<svg xmlns="http://www.w3.org/2000/svg" width="1200" height="760" viewBox="0 0 1200 760">
  <rect width="1200" height="760" fill="#0b0f15"/>
  <text x="20" y="28" fill="#e6e6e6" font-family="monospace" font-size="18">Orbit B // Simple Monochrome // 4 Variants + Sub-Agents</text>

  <rect x="20" y="44" width="1160" height="696" fill="none" stroke="#9a9a9a" stroke-width="1"/>

  <!-- center product -->
  <rect x="520" y="340" width="160" height="80" fill="none" stroke="#d0d0d0" stroke-width="1"/>
  <text x="540" y="368" fill="#f0f0f0" font-family="monospace" font-size="13">PRODUCT</text>
  <text x="540" y="388" fill="#d0d0d0" font-family="monospace" font-size="12">prd_2o02...</text>
  <text x="540" y="406" fill="#c0c0c0" font-family="monospace" font-size="11">dirty 4v</text>

  <!-- variants -->
  <rect x="540" y="230" width="120" height="42" fill="none" stroke="#bdbdbd" stroke-width="1"/>
  <text x="555" y="255" fill="#e8e8e8" font-family="monospace" font-size="12">v1 clean</text>

  <rect x="720" y="360" width="120" height="42" fill="none" stroke="#bdbdbd" stroke-width="1"/>
  <text x="735" y="385" fill="#e8e8e8" font-family="monospace" font-size="12">v2 dirty</text>

  <rect x="540" y="490" width="120" height="42" fill="none" stroke="#bdbdbd" stroke-width="1"/>
  <text x="555" y="515" fill="#e8e8e8" font-family="monospace" font-size="12">v3 clean</text>

  <rect x="360" y="360" width="120" height="42" fill="none" stroke="#bdbdbd" stroke-width="1"/>
  <text x="375" y="385" fill="#e8e8e8" font-family="monospace" font-size="12">v4 dirty</text>

  <!-- product to variants -->
  <line x1="600" y1="340" x2="600" y2="272" stroke="#b2b2b2" stroke-width="1"/>
  <line x1="680" y1="380" x2="720" y2="380" stroke="#b2b2b2" stroke-width="1"/>
  <line x1="600" y1="420" x2="600" y2="490" stroke="#b2b2b2" stroke-width="1"/>
  <line x1="520" y1="380" x2="480" y2="380" stroke="#b2b2b2" stroke-width="1"/>

  <!-- mirrored actors -->
  <rect x="170" y="120" width="250" height="76" fill="none" stroke="#d0d0d0" stroke-width="1"/>
  <text x="184" y="146" fill="#efefef" font-family="monospace" font-size="12">ACTOR a1   running</text>
  <text x="184" y="166" fill="#cfcfcf" font-family="monospace" font-size="11">variant: v1</text>

  <rect x="780" y="120" width="250" height="76" fill="none" stroke="#d0d0d0" stroke-width="1"/>
  <text x="794" y="146" fill="#efefef" font-family="monospace" font-size="12">ACTOR a3   stopped</text>
  <text x="794" y="166" fill="#cfcfcf" font-family="monospace" font-size="11">variant: v3</text>

  <rect x="170" y="560" width="250" height="76" fill="none" stroke="#d0d0d0" stroke-width="1"/>
  <text x="184" y="586" fill="#efefef" font-family="monospace" font-size="12">ACTOR a4   idle</text>
  <text x="184" y="606" fill="#cfcfcf" font-family="monospace" font-size="11">variant: v4</text>

  <rect x="780" y="560" width="250" height="76" fill="none" stroke="#d0d0d0" stroke-width="1"/>
  <text x="794" y="586" fill="#efefef" font-family="monospace" font-size="12">ACTOR a2   running</text>
  <text x="794" y="606" fill="#cfcfcf" font-family="monospace" font-size="11">variant: v2</text>

  <!-- variant to actors mirrored -->
  <polyline points="600,230 600,170 420,158" fill="none" stroke="#a8a8a8" stroke-width="1" stroke-dasharray="5 4"/>
  <polyline points="600,532 600,590 780,598" fill="none" stroke="#a8a8a8" stroke-width="1" stroke-dasharray="5 4"/>
  <polyline points="840,381 900,381 900,560" fill="none" stroke="#a8a8a8" stroke-width="1" stroke-dasharray="5 4"/>
  <polyline points="360,381 300,381 300,560" fill="none" stroke="#a8a8a8" stroke-width="1" stroke-dasharray="5 4"/>

  <!-- sub-agent mini nodes -->
  <rect x="430" y="118" width="110" height="24" fill="none" stroke="#9c9c9c"/>
  <text x="440" y="134" fill="#d0d0d0" font-family="monospace" font-size="11">sa frontend</text>
  <rect x="430" y="148" width="110" height="24" fill="none" stroke="#9c9c9c"/>
  <text x="440" y="164" fill="#d0d0d0" font-family="monospace" font-size="11">sa routing</text>

  <rect x="1040" y="118" width="100" height="24" fill="none" stroke="#9c9c9c"/>
  <text x="1050" y="134" fill="#d0d0d0" font-family="monospace" font-size="11">sa cleanup</text>

  <rect x="430" y="560" width="100" height="24" fill="none" stroke="#9c9c9c"/>
  <text x="440" y="576" fill="#d0d0d0" font-family="monospace" font-size="11">sa review</text>
  <rect x="430" y="590" width="100" height="24" fill="none" stroke="#9c9c9c"/>
  <text x="440" y="606" fill="#d0d0d0" font-family="monospace" font-size="11">sa verify</text>

  <rect x="1040" y="560" width="88" height="24" fill="none" stroke="#9c9c9c"/>
  <text x="1050" y="576" fill="#d0d0d0" font-family="monospace" font-size="11">sa test</text>
  <rect x="1040" y="590" width="88" height="24" fill="none" stroke="#9c9c9c"/>
  <text x="1050" y="606" fill="#d0d0d0" font-family="monospace" font-size="11">sa docs</text>

  <!-- actor to sub-agent links -->
  <line x1="420" y1="158" x2="430" y2="130" stroke="#909090" stroke-width="1"/>
  <line x1="420" y1="170" x2="430" y2="160" stroke="#909090" stroke-width="1"/>
  <line x1="1030" y1="158" x2="1040" y2="130" stroke="#909090" stroke-width="1"/>
  <line x1="420" y1="598" x2="430" y2="572" stroke="#909090" stroke-width="1"/>
  <line x1="420" y1="610" x2="430" y2="602" stroke="#909090" stroke-width="1"/>
  <line x1="1030" y1="598" x2="1040" y2="572" stroke="#909090" stroke-width="1"/>
  <line x1="1030" y1="610" x2="1040" y2="602" stroke="#909090" stroke-width="1"/>

  <text x="24" y="724" fill="#9e9e9e" font-family="monospace" font-size="11">Mirrored actor layout for even left/right balance. Minimal color, TUI-like boxes.</text>
</svg>
