<svg xmlns="http://www.w3.org/2000/svg" width="1200" height="820" viewBox="0 0 1200 820">
  <!-- ===== BACKGROUND ===== -->
  <rect width="1200" height="820" fill="#0a0e14"/>

  <!-- ===== OUTER FRAME ===== -->
  <rect x="12" y="10" width="1176" height="800" fill="none" stroke="#505050" stroke-width="1"/>

  <!-- ===== TITLE BAR ===== -->
  <rect x="12" y="10" width="1176" height="28" fill="#0d1119" stroke="#404040" stroke-width="0.5"/>
  <rect x="12" y="10" width="4" height="28" fill="#5a9bcf"/>
  <text x="28" y="29" fill="#d8d8d8" font-family="Menlo,monospace" font-size="12" font-weight="700" letter-spacing="1">CANDIDATE A</text>
  <text x="165" y="29" fill="#5a9bcf" font-family="Menlo,monospace" font-size="10">Spine Matrix</text>
  <text x="280" y="29" fill="#484848" font-family="Menlo,monospace" font-size="10">// central spine, branch rows, actor chips, sub-agent micro-grids</text>
  <!-- count badges top-right -->
  <rect x="1044" y="16" width="40" height="16" rx="3" fill="none" stroke="#3a5a7a" stroke-width="1"/>
  <text x="1052" y="28" fill="#5a9bcf" font-family="Menlo,monospace" font-size="9">3 V</text>
  <rect x="1090" y="16" width="40" height="16" rx="3" fill="none" stroke="#3a5a7a" stroke-width="1"/>
  <text x="1098" y="28" fill="#5a9bcf" font-family="Menlo,monospace" font-size="9">3 A</text>
  <rect x="1136" y="16" width="44" height="16" rx="3" fill="none" stroke="#3a5a7a" stroke-width="1"/>
  <text x="1143" y="28" fill="#5a9bcf" font-family="Menlo,monospace" font-size="9">8 sa</text>

  <!-- ================================================================ -->
  <!-- CONCEPT: Central vertical SPINE (product backbone). Variant      -->
  <!-- branches fork LEFT as horizontal rows. Each row contains actor   -->
  <!-- chips as rounded rectangles in a horizontal sequence. Sub-agent  -->
  <!-- micro-grids dock beneath each actor chip as a tight grid cell.   -->
  <!-- The spine is the structural anchor; everything reads L-to-R      -->
  <!-- from the spine outward.                                          -->
  <!-- ================================================================ -->

  <!-- ===== PRODUCT SPINE ===== -->
  <!-- Spine: thick vertical line, center-left area -->
  <line x1="200" y1="56" x2="200" y2="700" stroke="#5a9bcf" stroke-width="3"/>
  <rect x="196" y="52" width="8" height="8" rx="2" fill="#5a9bcf"/>
  <rect x="196" y="696" width="8" height="8" rx="2" fill="#5a9bcf"/>

  <!-- ===== PRODUCT NODE on spine top ===== -->
  <rect x="148" y="62" width="220" height="44" rx="4" fill="#0d1520" stroke="#5a9bcf" stroke-width="1.5"/>
  <rect x="148" y="62" width="4" height="44" rx="2" fill="#5a9bcf"/>
  <text x="164" y="80" fill="#e0e8f0" font-family="Menlo,monospace" font-size="11" font-weight="700">PRODUCT</text>
  <text x="164" y="96" fill="#5a9bcf" font-family="Menlo,monospace" font-size="9">prd_2o02efhj</text>
  <text x="292" y="96" fill="#3a4a5a" font-family="Menlo,monospace" font-size="8">@git://...#main</text>

  <!-- ================================================================ -->
  <!-- BRANCH ROW 1: "default" variant (dirty) — 2 actors              -->
  <!-- Horizontal branch from spine, variant label, then actor chips    -->
  <!-- ================================================================ -->

  <!-- Spine junction dot -->
  <circle cx="200" cy="160" r="5" fill="#0a0e14" stroke="#5a9bcf" stroke-width="1.5"/>
  <!-- Branch line from spine rightward -->
  <line x1="205" y1="160" x2="260" y2="160" stroke="#5a9bcf" stroke-width="1.5"/>

  <!-- Variant label block -->
  <rect x="260" y="142" width="160" height="36" rx="3" fill="#0d1520" stroke="#6a8aaa" stroke-width="1"/>
  <text x="274" y="158" fill="#c0d0e0" font-family="Menlo,monospace" font-size="11" font-weight="700">default</text>
  <rect x="364" y="148" width="44" height="18" rx="2" fill="none" stroke="#5a4a3a" stroke-width="0.75"/>
  <text x="372" y="161" fill="#c0956a" font-family="Menlo,monospace" font-size="9">dirty</text>
  <!-- Actor count chip on variant -->
  <text x="274" y="173" fill="#3a5a7a" font-family="Menlo,monospace" font-size="8">2 actors  5 sub-agents</text>

  <!-- Branch continuation line to actor row -->
  <line x1="420" y1="160" x2="470" y2="160" stroke="#404a54" stroke-width="1" stroke-dasharray="3 3"/>

  <!-- ===== ACTOR CHIP: A1 (run) ===== -->
  <rect x="470" y="130" width="220" height="60" rx="4" fill="#0e1520" stroke="#a0c0a0" stroke-width="1.5"/>
  <!-- status accent bar left -->
  <rect x="470" y="130" width="4" height="60" rx="2" fill="#70b070"/>
  <!-- actor info -->
  <text x="486" y="148" fill="#e0e8e0" font-family="Menlo,monospace" font-size="10" font-weight="700">act_2h2bd5ph</text>
  <rect x="634" y="136" width="44" height="16" rx="2" fill="#1a2a1a" stroke="#4a6a4a" stroke-width="0.75"/>
  <text x="644" y="149" fill="#70b070" font-family="Menlo,monospace" font-size="9">run</text>
  <text x="486" y="164" fill="#506a50" font-family="Menlo,monospace" font-size="8">opencode/server</text>
  <!-- micro-grid: 3 sub-agents docked below actor label -->
  <line x1="486" y1="170" x2="678" y2="170" stroke="#2a3a2a" stroke-width="0.5"/>
  <rect x="486" y="174" width="60" height="14" rx="2" fill="#0d150d" stroke="#3a5a3a" stroke-width="0.75"/>
  <text x="494" y="184" fill="#6a9a6a" font-family="Menlo,monospace" font-size="8">explore</text>
  <rect x="550" y="174" width="56" height="14" rx="2" fill="#0d150d" stroke="#3a5a3a" stroke-width="0.75"/>
  <text x="560" y="184" fill="#6a9a6a" font-family="Menlo,monospace" font-size="8">docs</text>
  <rect x="610" y="174" width="60" height="14" rx="2" fill="#0d150d" stroke="#3a5a3a" stroke-width="0.75"/>
  <text x="618" y="184" fill="#6a9a6a" font-family="Menlo,monospace" font-size="8">gitter</text>

  <!-- connector between A1 and A2 -->
  <line x1="690" y1="160" x2="720" y2="160" stroke="#404a54" stroke-width="1" stroke-dasharray="2 3"/>

  <!-- ===== ACTOR CHIP: A2 (stop) ===== -->
  <rect x="720" y="130" width="220" height="60" rx="4" fill="#0e1520" stroke="#b08080" stroke-width="1.5"/>
  <rect x="720" y="130" width="4" height="60" rx="2" fill="#a07070"/>
  <text x="736" y="148" fill="#e0d8d8" font-family="Menlo,monospace" font-size="10" font-weight="700">act_9xk3r4qm</text>
  <rect x="884" y="136" width="44" height="16" rx="2" fill="#2a1a1a" stroke="#6a4a4a" stroke-width="0.75"/>
  <text x="892" y="149" fill="#a08080" font-family="Menlo,monospace" font-size="9">stop</text>
  <text x="736" y="164" fill="#6a5050" font-family="Menlo,monospace" font-size="8">opencode/server</text>
  <!-- micro-grid: 2 sub-agents -->
  <line x1="736" y1="170" x2="928" y2="170" stroke="#2a2020" stroke-width="0.5"/>
  <rect x="736" y="174" width="88" height="14" rx="2" fill="#150d0d" stroke="#5a3a3a" stroke-width="0.75"/>
  <text x="748" y="184" fill="#9a7070" font-family="Menlo,monospace" font-size="8">frontend</text>
  <rect x="828" y="174" width="88" height="14" rx="2" fill="#150d0d" stroke="#5a3a3a" stroke-width="0.75"/>
  <text x="838" y="184" fill="#9a7070" font-family="Menlo,monospace" font-size="8">designer</text>


  <!-- ================================================================ -->
  <!-- BRANCH ROW 2: "clone_0001" variant (clean) — 1 actor             -->
  <!-- ================================================================ -->

  <!-- Spine junction dot -->
  <circle cx="200" cy="290" r="5" fill="#0a0e14" stroke="#5a9bcf" stroke-width="1.5"/>
  <line x1="205" y1="290" x2="260" y2="290" stroke="#5a9bcf" stroke-width="1.5"/>

  <!-- Variant label -->
  <rect x="260" y="272" width="160" height="36" rx="3" fill="#0d1520" stroke="#6a8aaa" stroke-width="1"/>
  <text x="274" y="288" fill="#c0d0e0" font-family="Menlo,monospace" font-size="11" font-weight="700">clone_0001</text>
  <rect x="364" y="278" width="44" height="18" rx="2" fill="none" stroke="#3a5a3a" stroke-width="0.75"/>
  <text x="370" y="291" fill="#6a9a6a" font-family="Menlo,monospace" font-size="9">clean</text>
  <text x="274" y="303" fill="#3a5a7a" font-family="Menlo,monospace" font-size="8">1 actor  3 sub-agents</text>

  <line x1="420" y1="290" x2="470" y2="290" stroke="#404a54" stroke-width="1" stroke-dasharray="3 3"/>

  <!-- ===== ACTOR CHIP: A3 (run) ===== -->
  <rect x="470" y="260" width="220" height="60" rx="4" fill="#0e1520" stroke="#a0c0a0" stroke-width="1.5"/>
  <rect x="470" y="260" width="4" height="60" rx="2" fill="#70b070"/>
  <text x="486" y="278" fill="#e0e8e0" font-family="Menlo,monospace" font-size="10" font-weight="700">act_0y4hm8xs</text>
  <rect x="634" y="266" width="44" height="16" rx="2" fill="#1a2a1a" stroke="#4a6a4a" stroke-width="0.75"/>
  <text x="644" y="279" fill="#70b070" font-family="Menlo,monospace" font-size="9">run</text>
  <text x="486" y="294" fill="#506a50" font-family="Menlo,monospace" font-size="8">opencode/server</text>
  <!-- micro-grid: 3 sub-agents, 2-col layout -->
  <line x1="486" y1="300" x2="678" y2="300" stroke="#2a3a2a" stroke-width="0.5"/>
  <rect x="486" y="304" width="60" height="14" rx="2" fill="#0d150d" stroke="#3a5a3a" stroke-width="0.75"/>
  <text x="494" y="314" fill="#6a9a6a" font-family="Menlo,monospace" font-size="8">planner</text>
  <rect x="550" y="304" width="56" height="14" rx="2" fill="#0d150d" stroke="#3a5a3a" stroke-width="0.75"/>
  <text x="558" y="314" fill="#6a9a6a" font-family="Menlo,monospace" font-size="8">senior</text>
  <rect x="610" y="304" width="56" height="14" rx="2" fill="#0d150d" stroke="#3a5a3a" stroke-width="0.75"/>
  <text x="618" y="314" fill="#6a9a6a" font-family="Menlo,monospace" font-size="8">junior</text>


  <!-- ================================================================ -->
  <!-- BRANCH ROW 3: "feature/auth" variant (clean) — 0 actors          -->
  <!-- ================================================================ -->

  <circle cx="200" cy="400" r="5" fill="#0a0e14" stroke="#5a9bcf" stroke-width="1.5"/>
  <line x1="205" y1="400" x2="260" y2="400" stroke="#5a9bcf" stroke-width="1.5"/>

  <rect x="260" y="382" width="160" height="36" rx="3" fill="#0d1520" stroke="#6a8aaa" stroke-width="1"/>
  <text x="274" y="398" fill="#c0d0e0" font-family="Menlo,monospace" font-size="11" font-weight="700">feature/auth</text>
  <rect x="364" y="388" width="44" height="18" rx="2" fill="none" stroke="#3a5a3a" stroke-width="0.75"/>
  <text x="370" y="401" fill="#6a9a6a" font-family="Menlo,monospace" font-size="9">clean</text>
  <text x="274" y="413" fill="#3a5a7a" font-family="Menlo,monospace" font-size="8">0 actors</text>

  <line x1="420" y1="400" x2="470" y2="400" stroke="#303030" stroke-width="1" stroke-dasharray="3 5"/>

  <!-- empty actor placeholder -->
  <rect x="470" y="388" width="160" height="24" rx="3" fill="none" stroke="#2a2a2a" stroke-width="1" stroke-dasharray="4 3"/>
  <text x="550" y="404" fill="#303030" font-family="Menlo,monospace" font-size="9" text-anchor="middle">no actors</text>


  <!-- ================================================================ -->
  <!-- MATRIX ALIGNMENT GUIDES (faint grid backdrop in actor area)      -->
  <!-- Shows the matrix structure that actors + sub-grids snap to       -->
  <!-- ================================================================ -->
  <!-- horizontal alignment guides -->
  <line x1="468" y1="126" x2="944" y2="126" stroke="#181e24" stroke-width="0.5"/>
  <line x1="468" y1="194" x2="944" y2="194" stroke="#181e24" stroke-width="0.5"/>
  <line x1="468" y1="256" x2="694" y2="256" stroke="#181e24" stroke-width="0.5"/>
  <line x1="468" y1="324" x2="694" y2="324" stroke="#181e24" stroke-width="0.5"/>


  <!-- ================================================================ -->
  <!-- TOPOLOGY SUMMARY — bottom-right                                  -->
  <!-- ================================================================ -->
  <rect x="910" y="450" width="260" height="120" rx="3" fill="#0d1119" stroke="#3a5a7a" stroke-width="1"/>
  <text x="924" y="470" fill="#5a9bcf" font-family="Menlo,monospace" font-size="10" font-weight="700">TOPOLOGY</text>
  <line x1="924" y1="476" x2="1156" y2="476" stroke="#1a2a3a" stroke-width="0.5"/>
  <text x="924" y="494" fill="#4a6a8a" font-family="Menlo,monospace" font-size="9">product ............ 1</text>
  <text x="924" y="510" fill="#4a6a8a" font-family="Menlo,monospace" font-size="9">variants ........... 3</text>
  <text x="924" y="526" fill="#4a6a8a" font-family="Menlo,monospace" font-size="9">actors ............. 3</text>
  <text x="924" y="542" fill="#4a6a8a" font-family="Menlo,monospace" font-size="9">sub-agents ......... 8</text>
  <text x="924" y="558" fill="#3a4a5a" font-family="Menlo,monospace" font-size="8">status: 2 run  1 stop  1 empty-variant</text>

  <!-- ===== STRUCTURE DIAGRAM in topology box ===== -->
  <text x="924" y="340" fill="#2a3a4a" font-family="Menlo,monospace" font-size="8">STRUCTURE</text>
  <text x="924" y="356" fill="#1a2a3a" font-family="Menlo,monospace" font-size="8">spine ─┬─ variant ─── [actor][actor]</text>
  <text x="924" y="370" fill="#1a2a3a" font-family="Menlo,monospace" font-size="8">       │                 └─sub─grid</text>
  <text x="924" y="384" fill="#1a2a3a" font-family="Menlo,monospace" font-size="8">       ├─ variant ─── [actor]</text>
  <text x="924" y="398" fill="#1a2a3a" font-family="Menlo,monospace" font-size="8">       └─ variant ─── (empty)</text>


  <!-- ================================================================ -->
  <!-- LEGEND — bottom bar                                               -->
  <!-- ================================================================ -->
  <line x1="24" y1="700" x2="1176" y2="700" stroke="#2a3a4a" stroke-width="0.5"/>
  <text x="600" y="696" fill="#2a3a4a" font-family="Menlo,monospace" font-size="8" text-anchor="middle">LEGEND</text>

  <!-- spine -->
  <line x1="48" y1="720" x2="48" y2="738" stroke="#5a9bcf" stroke-width="3"/>
  <circle cx="48" cy="729" r="4" fill="#0a0e14" stroke="#5a9bcf" stroke-width="1.5"/>
  <text x="62" y="733" fill="#4a6a8a" font-family="Menlo,monospace" font-size="9">product spine</text>

  <!-- branch line -->
  <line x1="180" y1="729" x2="212" y2="729" stroke="#5a9bcf" stroke-width="1.5"/>
  <text x="220" y="733" fill="#4a6a8a" font-family="Menlo,monospace" font-size="9">branch</text>

  <!-- variant block -->
  <rect x="290" y="722" width="16" height="14" rx="2" fill="#0d1520" stroke="#6a8aaa" stroke-width="1"/>
  <text x="312" y="733" fill="#4a6a8a" font-family="Menlo,monospace" font-size="9">variant</text>

  <!-- actor chip -->
  <rect x="386" y="722" width="18" height="14" rx="3" fill="#0e1520" stroke="#a0c0a0" stroke-width="1.5"/>
  <rect x="386" y="722" width="3" height="14" rx="1" fill="#70b070"/>
  <text x="410" y="733" fill="#4a6a8a" font-family="Menlo,monospace" font-size="9">actor chip</text>

  <!-- micro-grid -->
  <rect x="500" y="723" width="36" height="12" rx="2" fill="none" stroke="#3a5a3a" stroke-width="0.75"/>
  <rect x="502" y="725" width="15" height="8" rx="1" fill="#0d150d" stroke="#3a5a3a" stroke-width="0.5"/>
  <rect x="519" y="725" width="15" height="8" rx="1" fill="#0d150d" stroke="#3a5a3a" stroke-width="0.5"/>
  <text x="542" y="733" fill="#4a6a8a" font-family="Menlo,monospace" font-size="9">sub-agent micro-grid</text>

  <!-- status colors -->
  <text x="48" y="756" fill="#3a4a5a" font-family="Menlo,monospace" font-size="8">status:</text>
  <rect x="112" y="746" width="36" height="14" rx="2" fill="#1a2a1a" stroke="#4a6a4a" stroke-width="0.75"/>
  <text x="120" y="757" fill="#70b070" font-family="Menlo,monospace" font-size="9">run</text>
  <rect x="156" y="746" width="40" height="14" rx="2" fill="#2a1a1a" stroke="#6a4a4a" stroke-width="0.75"/>
  <text x="164" y="757" fill="#a08080" font-family="Menlo,monospace" font-size="9">stop</text>
  <rect x="204" y="746" width="48" height="14" rx="2" fill="none" stroke="#3a5a3a" stroke-width="0.75"/>
  <text x="212" y="757" fill="#6a9a6a" font-family="Menlo,monospace" font-size="9">clean</text>
  <rect x="260" y="746" width="48" height="14" rx="2" fill="none" stroke="#5a4a3a" stroke-width="0.75"/>
  <text x="268" y="757" fill="#c0956a" font-family="Menlo,monospace" font-size="9">dirty</text>

  <!-- concept note -->
  <text x="400" y="756" fill="#1a2a3a" font-family="Menlo,monospace" font-size="8">Spine = product backbone  |  Each variant = horizontal branch row  |  Actor chips dock inline  |  Sub-agents nest inside chip</text>


  <!-- ===== BOTTOM CAPTION ===== -->
  <rect x="12" y="780" width="1176" height="1" fill="#3a5a7a"/>
  <text x="600" y="800" fill="#5a9bcf" font-family="Menlo,monospace" font-size="12" font-weight="700" text-anchor="middle" letter-spacing="2">Round12 Candidate A // Spine Matrix</text>
</svg>
