<svg xmlns="http://www.w3.org/2000/svg" width="1200" height="820" viewBox="0 0 1200 820">
  <!-- ===== BACKGROUND ===== -->
  <rect width="1200" height="820" fill="#0a0e14"/>

  <!-- ===== OUTER FRAME ===== -->
  <rect x="12" y="10" width="1176" height="800" fill="none" stroke="#505050" stroke-width="1"/>

  <!-- ===== TITLE BAR ===== -->
  <rect x="12" y="10" width="1176" height="28" fill="#0d1119" stroke="#404040" stroke-width="0.5"/>
  <rect x="12" y="10" width="4" height="28" fill="#9a6abf"/>
  <text x="28" y="29" fill="#d8d8d8" font-family="Menlo,monospace" font-size="12" font-weight="700" letter-spacing="1">CANDIDATE C</text>
  <text x="165" y="29" fill="#9a6abf" font-family="Menlo,monospace" font-size="10">Radial Arc Hybrid</text>
  <text x="332" y="29" fill="#484848" font-family="Menlo,monospace" font-size="10">// product anchor, arc variants, rectangular actor lanes</text>
  <rect x="1044" y="16" width="40" height="16" rx="3" fill="none" stroke="#4a3a5a" stroke-width="1"/>
  <text x="1052" y="28" fill="#9a6abf" font-family="Menlo,monospace" font-size="9">3 V</text>
  <rect x="1090" y="16" width="40" height="16" rx="3" fill="none" stroke="#4a3a5a" stroke-width="1"/>
  <text x="1098" y="28" fill="#9a6abf" font-family="Menlo,monospace" font-size="9">3 A</text>
  <rect x="1136" y="16" width="44" height="16" rx="3" fill="none" stroke="#4a3a5a" stroke-width="1"/>
  <text x="1143" y="28" fill="#9a6abf" font-family="Menlo,monospace" font-size="9">8 sa</text>

  <!-- ================================================================ -->
  <!-- CONCEPT: Product node sits center-left as the gravitational      -->
  <!-- anchor. Variants arc outward to the right at 3 angles.           -->
  <!-- Instead of chaotic radial layout, each variant fans into a       -->
  <!-- clean rectangular LANE that holds actor cards + sub-agents.      -->
  <!-- Arc connectors provide visual hierarchy; lanes keep readability. -->
  <!-- ================================================================ -->

  <!-- ===== PRODUCT ANCHOR (center-left) ===== -->
  <!-- Outer halo ring -->
  <circle cx="140" cy="360" r="68" fill="none" stroke="#1a1a2a" stroke-width="1"/>
  <circle cx="140" cy="360" r="58" fill="#0d1020" stroke="#6a5a8a" stroke-width="2"/>
  <!-- Product node -->
  <rect x="82" y="330" width="116" height="60" rx="6" fill="#0e1220" stroke="#9a6abf" stroke-width="1.5"/>
  <text x="98" y="352" fill="#d0c0e0" font-family="Menlo,monospace" font-size="11" font-weight="700">PRODUCT</text>
  <text x="92" y="368" fill="#9a6abf" font-family="Menlo,monospace" font-size="8">prd_2o02efhj</text>
  <text x="92" y="382" fill="#4a3a5a" font-family="Menlo,monospace" font-size="7">@git://...#main</text>

  <!-- ================================================================ -->
  <!-- ARC CONNECTOR: product -> V1 (default) — upper arc               -->
  <!-- ================================================================ -->
  <path d="M 198,340 C 260,280 300,220 340,180" fill="none" stroke="#6a5a8a" stroke-width="1.5"/>
  <!-- arc endpoint marker -->
  <circle cx="340" cy="180" r="4" fill="#6a5a8a"/>

  <!-- ===== VARIANT 1 LANE: "default" ===== -->
  <!-- Lane container -->
  <rect x="320" y="60" width="840" height="200" rx="4" fill="#0c0e18" stroke="#2a2a3a" stroke-width="1"/>
  <!-- Variant label strip -->
  <rect x="320" y="60" width="120" height="200" rx="4" fill="#0e1220" stroke="#4a3a5a" stroke-width="1"/>
  <rect x="320" y="60" width="4" height="200" rx="2" fill="#8a6aaa"/>
  <text x="338" y="100" fill="#c0b0d0" font-family="Menlo,monospace" font-size="14" font-weight="700">default</text>
  <rect x="338" y="110" width="50" height="16" rx="2" fill="none" stroke="#5a4a3a" stroke-width="0.75"/>
  <text x="346" y="122" fill="#c0956a" font-family="Menlo,monospace" font-size="9">dirty</text>
  <text x="338" y="148" fill="#4a3a5a" font-family="Menlo,monospace" font-size="9">2 actors</text>
  <text x="338" y="164" fill="#3a2a4a" font-family="Menlo,monospace" font-size="8">5 sub-agents</text>

  <!-- ===== ACTOR CARD A1 in lane ===== -->
  <rect x="456" y="74" width="320" height="84" rx="4" fill="#0b1018" stroke="#80a080" stroke-width="1.5"/>
  <rect x="456" y="74" width="4" height="84" rx="2" fill="#70b070"/>
  <text x="472" y="94" fill="#e0e8e0" font-family="Menlo,monospace" font-size="10" font-weight="700">act_2h2bd5ph</text>
  <rect x="620" y="82" width="44" height="16" rx="2" fill="#1a2a1a" stroke="#4a6a4a" stroke-width="0.75"/>
  <text x="630" y="95" fill="#70b070" font-family="Menlo,monospace" font-size="9">run</text>
  <text x="670" y="95" fill="#304030" font-family="Menlo,monospace" font-size="8">opencode/server</text>
  <!-- sub-agents inline row -->
  <text x="472" y="112" fill="#506a50" font-family="Menlo,monospace" font-size="8">SUB-AGENTS x3</text>
  <line x1="472" y1="116" x2="760" y2="116" stroke="#1a2a1a" stroke-width="0.5"/>
  <rect x="472" y="120" width="86" height="20" rx="2" fill="#0d150d" stroke="#3a5a3a" stroke-width="0.75"/>
  <text x="482" y="134" fill="#6a9a6a" font-family="Menlo,monospace" font-size="9">explore</text>
  <rect x="564" y="120" width="70" height="20" rx="2" fill="#0d150d" stroke="#3a5a3a" stroke-width="0.75"/>
  <text x="574" y="134" fill="#6a9a6a" font-family="Menlo,monospace" font-size="9">docs</text>
  <rect x="640" y="120" width="80" height="20" rx="2" fill="#0d150d" stroke="#3a5a3a" stroke-width="0.75"/>
  <text x="650" y="134" fill="#6a9a6a" font-family="Menlo,monospace" font-size="9">gitter</text>

  <!-- ===== ACTOR CARD A2 in lane ===== -->
  <rect x="456" y="170" width="320" height="78" rx="4" fill="#0b1018" stroke="#a08080" stroke-width="1.5"/>
  <rect x="456" y="170" width="4" height="78" rx="2" fill="#a07070"/>
  <text x="472" y="190" fill="#e0d8d8" font-family="Menlo,monospace" font-size="10" font-weight="700">act_9xk3r4qm</text>
  <rect x="620" y="178" width="44" height="16" rx="2" fill="#2a1a1a" stroke="#6a4a4a" stroke-width="0.75"/>
  <text x="628" y="191" fill="#a08080" font-family="Menlo,monospace" font-size="9">stop</text>
  <text x="670" y="191" fill="#403030" font-family="Menlo,monospace" font-size="8">opencode/server</text>
  <text x="472" y="208" fill="#6a5050" font-family="Menlo,monospace" font-size="8">SUB-AGENTS x2</text>
  <line x1="472" y1="212" x2="760" y2="212" stroke="#2a1a1a" stroke-width="0.5"/>
  <rect x="472" y="216" width="90" height="20" rx="2" fill="#150d0d" stroke="#5a3a3a" stroke-width="0.75"/>
  <text x="482" y="230" fill="#9a7070" font-family="Menlo,monospace" font-size="9">frontend</text>
  <rect x="568" y="216" width="94" height="20" rx="2" fill="#150d0d" stroke="#5a3a3a" stroke-width="0.75"/>
  <text x="578" y="230" fill="#9a7070" font-family="Menlo,monospace" font-size="9">designer</text>

  <!-- Arc-to-lane join indicator -->
  <rect x="446" y="152" width="6" height="6" rx="1" fill="#6a5a8a"/>


  <!-- ================================================================ -->
  <!-- ARC CONNECTOR: product -> V2 (clone_0001) — middle arc           -->
  <!-- ================================================================ -->
  <path d="M 198,360 C 250,360 280,380 340,390" fill="none" stroke="#6a5a8a" stroke-width="1.5"/>
  <circle cx="340" cy="390" r="4" fill="#6a5a8a"/>

  <!-- ===== VARIANT 2 LANE: "clone_0001" ===== -->
  <rect x="320" y="290" width="840" height="160" rx="4" fill="#0c0e18" stroke="#2a2a3a" stroke-width="1"/>
  <rect x="320" y="290" width="120" height="160" rx="4" fill="#0e1220" stroke="#4a3a5a" stroke-width="1"/>
  <rect x="320" y="290" width="4" height="160" rx="2" fill="#8a6aaa"/>
  <text x="338" y="330" fill="#c0b0d0" font-family="Menlo,monospace" font-size="14" font-weight="700">clone_</text>
  <text x="338" y="348" fill="#c0b0d0" font-family="Menlo,monospace" font-size="14" font-weight="700">0001</text>
  <rect x="338" y="356" width="50" height="16" rx="2" fill="none" stroke="#3a5a3a" stroke-width="0.75"/>
  <text x="346" y="368" fill="#6a9a6a" font-family="Menlo,monospace" font-size="9">clean</text>
  <text x="338" y="392" fill="#4a3a5a" font-family="Menlo,monospace" font-size="9">1 actor</text>
  <text x="338" y="408" fill="#3a2a4a" font-family="Menlo,monospace" font-size="8">3 sub-agents</text>

  <rect x="446" y="382" width="6" height="6" rx="1" fill="#6a5a8a"/>

  <!-- ===== ACTOR CARD A3 ===== -->
  <rect x="456" y="304" width="320" height="132" rx="4" fill="#0b1018" stroke="#80a080" stroke-width="1.5"/>
  <rect x="456" y="304" width="4" height="132" rx="2" fill="#70b070"/>
  <text x="472" y="324" fill="#e0e8e0" font-family="Menlo,monospace" font-size="10" font-weight="700">act_0y4hm8xs</text>
  <rect x="620" y="312" width="44" height="16" rx="2" fill="#1a2a1a" stroke="#4a6a4a" stroke-width="0.75"/>
  <text x="630" y="325" fill="#70b070" font-family="Menlo,monospace" font-size="9">run</text>
  <text x="670" y="325" fill="#304030" font-family="Menlo,monospace" font-size="8">opencode/server</text>
  <text x="472" y="346" fill="#506a50" font-family="Menlo,monospace" font-size="8">SUB-AGENTS x3</text>
  <line x1="472" y1="350" x2="760" y2="350" stroke="#1a2a1a" stroke-width="0.5"/>
  <rect x="472" y="356" width="86" height="28" rx="2" fill="#0d150d" stroke="#3a5a3a" stroke-width="0.75"/>
  <text x="482" y="370" fill="#6a9a6a" font-family="Menlo,monospace" font-size="9">planner</text>
  <text x="482" y="382" fill="#2a4a2a" font-family="Menlo,monospace" font-size="7">t_06</text>
  <rect x="564" y="356" width="86" height="28" rx="2" fill="#0d150d" stroke="#3a5a3a" stroke-width="0.75"/>
  <text x="574" y="370" fill="#6a9a6a" font-family="Menlo,monospace" font-size="9">senior</text>
  <text x="574" y="382" fill="#2a4a2a" font-family="Menlo,monospace" font-size="7">t_07</text>
  <rect x="656" y="356" width="86" height="28" rx="2" fill="#0d150d" stroke="#3a5a3a" stroke-width="0.75"/>
  <text x="666" y="370" fill="#6a9a6a" font-family="Menlo,monospace" font-size="9">junior</text>
  <text x="666" y="382" fill="#2a4a2a" font-family="Menlo,monospace" font-size="7">t_08</text>

  <text x="472" y="424" fill="#1a2a1a" font-family="Menlo,monospace" font-size="8">[Enter] attach  [m] messages</text>


  <!-- ================================================================ -->
  <!-- ARC CONNECTOR: product -> V3 (feature/auth) — lower arc          -->
  <!-- ================================================================ -->
  <path d="M 198,380 C 260,440 300,500 340,540" fill="none" stroke="#6a5a8a" stroke-width="1.5"/>
  <circle cx="340" cy="540" r="4" fill="#6a5a8a"/>

  <!-- ===== VARIANT 3 LANE: "feature/auth" ===== -->
  <rect x="320" y="478" width="840" height="100" rx="4" fill="#0c0e18" stroke="#1a1a2a" stroke-width="1"/>
  <rect x="320" y="478" width="120" height="100" rx="4" fill="#0e1220" stroke="#4a3a5a" stroke-width="1"/>
  <rect x="320" y="478" width="4" height="100" rx="2" fill="#8a6aaa"/>
  <text x="338" y="520" fill="#c0b0d0" font-family="Menlo,monospace" font-size="14" font-weight="700">feature/</text>
  <text x="338" y="538" fill="#c0b0d0" font-family="Menlo,monospace" font-size="14" font-weight="700">auth</text>
  <rect x="338" y="546" width="50" height="16" rx="2" fill="none" stroke="#3a5a3a" stroke-width="0.75"/>
  <text x="346" y="558" fill="#6a9a6a" font-family="Menlo,monospace" font-size="9">clean</text>

  <!-- empty placeholder -->
  <rect x="456" y="510" width="200" height="32" rx="3" fill="none" stroke="#1a1a2a" stroke-width="1" stroke-dasharray="4 3"/>
  <text x="556" y="530" fill="#2a2a3a" font-family="Menlo,monospace" font-size="9" text-anchor="middle">no actors</text>


  <!-- ================================================================ -->
  <!-- TOPOLOGY SUMMARY — bottom-right                                  -->
  <!-- ================================================================ -->
  <rect x="910" y="600" width="260" height="100" rx="3" fill="#0d1119" stroke="#4a3a5a" stroke-width="1"/>
  <text x="924" y="620" fill="#9a6abf" font-family="Menlo,monospace" font-size="10" font-weight="700">TOPOLOGY</text>
  <line x1="924" y1="626" x2="1156" y2="626" stroke="#2a1a3a" stroke-width="0.5"/>
  <text x="924" y="644" fill="#6a4a8a" font-family="Menlo,monospace" font-size="9">product ............ 1</text>
  <text x="924" y="660" fill="#6a4a8a" font-family="Menlo,monospace" font-size="9">variants ........... 3</text>
  <text x="924" y="676" fill="#6a4a8a" font-family="Menlo,monospace" font-size="9">actors ............. 3</text>
  <text x="924" y="692" fill="#6a4a8a" font-family="Menlo,monospace" font-size="9">sub-agents ......... 8</text>


  <!-- ================================================================ -->
  <!-- LEGEND — bottom bar                                               -->
  <!-- ================================================================ -->
  <line x1="24" y1="716" x2="1176" y2="716" stroke="#2a2a3a" stroke-width="0.5"/>
  <text x="600" y="712" fill="#2a2a3a" font-family="Menlo,monospace" font-size="8" text-anchor="middle">LEGEND</text>

  <!-- product anchor -->
  <circle cx="52" cy="738" r="10" fill="#0d1020" stroke="#6a5a8a" stroke-width="1.5"/>
  <text x="68" y="742" fill="#6a4a8a" font-family="Menlo,monospace" font-size="9">product anchor</text>

  <!-- arc -->
  <path d="M 190,734 C 200,726 210,726 220,734" fill="none" stroke="#6a5a8a" stroke-width="1.5"/>
  <text x="228" y="742" fill="#6a4a8a" font-family="Menlo,monospace" font-size="9">arc connector</text>

  <!-- lane -->
  <rect x="340" y="730" width="40" height="16" rx="2" fill="#0c0e18" stroke="#2a2a3a" stroke-width="1"/>
  <rect x="340" y="730" width="12" height="16" rx="2" fill="#0e1220" stroke="#4a3a5a" stroke-width="0.5"/>
  <text x="388" y="742" fill="#6a4a8a" font-family="Menlo,monospace" font-size="9">variant lane</text>

  <!-- actor -->
  <rect x="488" y="730" width="18" height="14" rx="3" fill="#0b1018" stroke="#80a080" stroke-width="1.5"/>
  <rect x="488" y="730" width="3" height="14" rx="1" fill="#70b070"/>
  <text x="512" y="742" fill="#6a4a8a" font-family="Menlo,monospace" font-size="9">actor</text>

  <!-- sub-tag -->
  <rect x="570" y="732" width="36" height="12" rx="2" fill="#0d150d" stroke="#3a5a3a" stroke-width="0.75"/>
  <text x="612" y="742" fill="#6a4a8a" font-family="Menlo,monospace" font-size="9">sub-agent</text>

  <!-- status -->
  <text x="48" y="770" fill="#3a2a4a" font-family="Menlo,monospace" font-size="8">status:</text>
  <rect x="112" y="760" width="36" height="14" rx="2" fill="#1a2a1a" stroke="#4a6a4a" stroke-width="0.75"/>
  <text x="120" y="771" fill="#70b070" font-family="Menlo,monospace" font-size="9">run</text>
  <rect x="156" y="760" width="40" height="14" rx="2" fill="#2a1a1a" stroke="#6a4a4a" stroke-width="0.75"/>
  <text x="164" y="771" fill="#a08080" font-family="Menlo,monospace" font-size="9">stop</text>

  <text x="280" y="770" fill="#1a1a2a" font-family="Menlo,monospace" font-size="8">Product anchor left  |  Arc connectors show hierarchy  |  Actor lanes keep readability  |  No pure-radial chaos</text>


  <!-- ===== BOTTOM CAPTION ===== -->
  <rect x="12" y="790" width="1176" height="1" fill="#4a3a5a"/>
  <text x="600" y="806" fill="#9a6abf" font-family="Menlo,monospace" font-size="12" font-weight="700" text-anchor="middle" letter-spacing="2">Round12 Candidate C // Radial Arc Hybrid</text>
</svg>
