<svg xmlns="http://www.w3.org/2000/svg" width="1200" height="760" viewBox="0 0 1200 760">
  <!-- ═══ BACKGROUND ═══ -->
  <rect width="1200" height="760" fill="#0c0e12"/>

  <!-- Top chrome bar -->
  <rect x="0" y="0" width="1200" height="2" fill="#2a2a2a"/>
  <rect x="0" y="0" width="140" height="2" fill="#a0a0a0"/>

  <!-- Title block -->
  <rect x="24" y="14" width="5" height="14" fill="#b0b0b0"/>
  <text x="36" y="26" fill="#d8d8d8" font-family="monospace" font-size="14" font-weight="bold" letter-spacing="1">GRAPHICAL NODE</text>
  <text x="210" y="26" fill="#505050" font-family="monospace" font-size="10">R10 final // B layout + C sub-agents // monochrome</text>

  <!-- Node count badges — top-right -->
  <rect x="1040" y="10" width="64" height="20" fill="none" stroke="#2a2a2a" stroke-width="1"/>
  <text x="1050" y="24" fill="#707070" font-family="monospace" font-size="10">4V  4A</text>
  <rect x="1112" y="10" width="52" height="20" fill="none" stroke="#2a2a2a" stroke-width="1"/>
  <text x="1122" y="24" fill="#505050" font-family="monospace" font-size="10">10sa</text>

  <!-- Main container -->
  <rect x="20" y="38" width="1160" height="686" fill="none" stroke="#222222" stroke-width="1"/>

  <!-- ═══ ORBIT ZONE GUIDES ═══ -->
  <!-- Inner variant zone -->
  <rect x="338" y="216" width="524" height="328" fill="none" stroke="#1a1a1a" stroke-width="1" stroke-dasharray="6 5"/>
  <!-- Outer actor zone -->
  <rect x="48" y="62" width="1104" height="636" fill="none" stroke="#141414" stroke-width="1" stroke-dasharray="8 7"/>
  <!-- Crosshairs through center -->
  <line x1="600" y1="56" x2="600" y2="706" stroke="#161616" stroke-width="1" stroke-dasharray="2 8"/>
  <line x1="38" y1="380" x2="1162" y2="380" stroke="#161616" stroke-width="1" stroke-dasharray="2 8"/>

  <!-- Zone labels -->
  <text x="348" y="212" fill="#252525" font-family="monospace" font-size="9">variant zone</text>
  <text x="58" y="78" fill="#1e1e1e" font-family="monospace" font-size="9">actor zone</text>

  <!-- Vertex markers at variant zone corners -->
  <rect x="336" y="214" width="4" height="4" fill="#303030"/>
  <rect x="858" y="214" width="4" height="4" fill="#303030"/>
  <rect x="858" y="540" width="4" height="4" fill="#303030"/>
  <rect x="336" y="540" width="4" height="4" fill="#303030"/>

  <!-- ═══════════════════════════════════════════════════════════════ -->
  <!-- CENTER: PRODUCT NODE                                          -->
  <!-- Strong B-style center with corner brackets                    -->
  <!-- ═══════════════════════════════════════════════════════════════ -->
  <rect x="536" y="348" width="128" height="64" fill="#111315" stroke="#909090" stroke-width="1.5"/>
  <!-- Corner brackets -->
  <line x1="536" y1="348" x2="550" y2="348" stroke="#c0c0c0" stroke-width="2"/>
  <line x1="536" y1="348" x2="536" y2="362" stroke="#c0c0c0" stroke-width="2"/>
  <line x1="664" y1="348" x2="650" y2="348" stroke="#c0c0c0" stroke-width="2"/>
  <line x1="664" y1="348" x2="664" y2="362" stroke="#c0c0c0" stroke-width="2"/>
  <line x1="536" y1="412" x2="550" y2="412" stroke="#c0c0c0" stroke-width="2"/>
  <line x1="536" y1="412" x2="536" y2="398" stroke="#c0c0c0" stroke-width="2"/>
  <line x1="664" y1="412" x2="650" y2="412" stroke="#c0c0c0" stroke-width="2"/>
  <line x1="664" y1="412" x2="664" y2="398" stroke="#c0c0c0" stroke-width="2"/>
  <!-- Product text -->
  <text x="556" y="375" fill="#e8e8e8" font-family="monospace" font-size="12" font-weight="bold">PRODUCT</text>
  <text x="556" y="392" fill="#808080" font-family="monospace" font-size="10">prd_2o02ef</text>
  <text x="556" y="406" fill="#505050" font-family="monospace" font-size="9">dirty · 4 variants</text>

  <!-- ═══════════════════════════════════════════════════════════════ -->
  <!-- VARIANTS: cardinal positions (B geometry — N/E/S/W)           -->
  <!-- ═══════════════════════════════════════════════════════════════ -->

  <!-- V1: north (12 o'clock) -->
  <rect x="548" y="240" width="104" height="38" fill="#111315" stroke="#707070" stroke-width="1"/>
  <rect x="548" y="240" width="3" height="38" fill="#909090"/>
  <text x="562" y="256" fill="#d0d0d0" font-family="monospace" font-size="11" font-weight="bold">v1</text>
  <text x="580" y="256" fill="#808080" font-family="monospace" font-size="10">main</text>
  <text x="562" y="270" fill="#606060" font-family="monospace" font-size="9">clean</text>

  <!-- V2: east (3 o'clock) -->
  <rect x="728" y="361" width="104" height="38" fill="#111315" stroke="#707070" stroke-width="1"/>
  <rect x="728" y="361" width="3" height="38" fill="#909090"/>
  <text x="742" y="377" fill="#d0d0d0" font-family="monospace" font-size="11" font-weight="bold">v2</text>
  <text x="760" y="377" fill="#808080" font-family="monospace" font-size="10">feature</text>
  <text x="742" y="391" fill="#606060" font-family="monospace" font-size="9">dirty</text>

  <!-- V3: south (6 o'clock) -->
  <rect x="548" y="482" width="104" height="38" fill="#111315" stroke="#707070" stroke-width="1"/>
  <rect x="548" y="482" width="3" height="38" fill="#909090"/>
  <text x="562" y="498" fill="#d0d0d0" font-family="monospace" font-size="11" font-weight="bold">v3</text>
  <text x="580" y="498" fill="#808080" font-family="monospace" font-size="10">staging</text>
  <text x="562" y="512" fill="#606060" font-family="monospace" font-size="9">clean</text>

  <!-- V4: west (9 o'clock) -->
  <rect x="368" y="361" width="104" height="38" fill="#111315" stroke="#707070" stroke-width="1"/>
  <rect x="368" y="361" width="3" height="38" fill="#909090"/>
  <text x="382" y="377" fill="#d0d0d0" font-family="monospace" font-size="11" font-weight="bold">v4</text>
  <text x="400" y="377" fill="#808080" font-family="monospace" font-size="10">hotfix</text>
  <text x="382" y="391" fill="#606060" font-family="monospace" font-size="9">dirty</text>

  <!-- ═══════════════════════════════════════════════════════════════ -->
  <!-- SPOKES: product → variants (solid gray, B style)              -->
  <!-- ═══════════════════════════════════════════════════════════════ -->
  <!-- product top → V1 bottom -->
  <line x1="600" y1="348" x2="600" y2="278" stroke="#585858" stroke-width="1"/>
  <!-- product right → V2 left -->
  <line x1="664" y1="380" x2="728" y2="380" stroke="#585858" stroke-width="1"/>
  <!-- product bottom → V3 top -->
  <line x1="600" y1="412" x2="600" y2="482" stroke="#585858" stroke-width="1"/>
  <!-- product left → V4 right -->
  <line x1="536" y1="380" x2="472" y2="380" stroke="#585858" stroke-width="1"/>

  <!-- ═══════════════════════════════════════════════════════════════ -->
  <!-- ACTORS: mirrored left/right at diagonal corners               -->
  <!--   A1=top-left(v1)  A2=top-right(v2)                          -->
  <!--   A3=bot-left(v4)  A4=bot-right(v3)                          -->
  <!-- ═══════════════════════════════════════════════════════════════ -->

  <!-- A1: top-left ─── linked to V1 -->
  <rect x="70" y="100" width="230" height="68" fill="#111315" stroke="#909090" stroke-width="1"/>
  <rect x="70" y="100" width="230" height="3" fill="#787878"/>
  <text x="84" y="124" fill="#e0e0e0" font-family="monospace" font-size="11" font-weight="bold">ACTOR a1</text>
  <text x="182" y="124" fill="#585858" font-family="monospace" font-size="10">running</text>
  <text x="84" y="142" fill="#707070" font-family="monospace" font-size="10">variant: v1 · opencode</text>
  <text x="84" y="158" fill="#484848" font-family="monospace" font-size="9">ses_01abc · pid 4821</text>

  <!-- A2: top-right ─── linked to V2 (mirror of A1) -->
  <rect x="900" y="100" width="230" height="68" fill="#111315" stroke="#909090" stroke-width="1"/>
  <rect x="900" y="100" width="230" height="3" fill="#787878"/>
  <text x="914" y="124" fill="#e0e0e0" font-family="monospace" font-size="11" font-weight="bold">ACTOR a2</text>
  <text x="1012" y="124" fill="#585858" font-family="monospace" font-size="10">stopped</text>
  <text x="914" y="142" fill="#707070" font-family="monospace" font-size="10">variant: v2 · opencode</text>
  <text x="914" y="158" fill="#484848" font-family="monospace" font-size="9">ses_02def · pid 5103</text>

  <!-- A3: bottom-left ─── linked to V4 (mirror of A4) -->
  <rect x="70" y="592" width="230" height="68" fill="#111315" stroke="#909090" stroke-width="1"/>
  <rect x="70" y="592" width="230" height="3" fill="#787878"/>
  <text x="84" y="616" fill="#e0e0e0" font-family="monospace" font-size="11" font-weight="bold">ACTOR a3</text>
  <text x="182" y="616" fill="#585858" font-family="monospace" font-size="10">idle</text>
  <text x="84" y="634" fill="#707070" font-family="monospace" font-size="10">variant: v4 · opencode</text>
  <text x="84" y="650" fill="#484848" font-family="monospace" font-size="9">ses_04jkl · pid 6280</text>

  <!-- A4: bottom-right ─── linked to V3 (mirror of A3) -->
  <rect x="900" y="592" width="230" height="68" fill="#111315" stroke="#909090" stroke-width="1"/>
  <rect x="900" y="592" width="230" height="3" fill="#787878"/>
  <text x="914" y="616" fill="#e0e0e0" font-family="monospace" font-size="11" font-weight="bold">ACTOR a4</text>
  <text x="1012" y="616" fill="#585858" font-family="monospace" font-size="10">running</text>
  <text x="914" y="634" fill="#707070" font-family="monospace" font-size="10">variant: v3 · opencode</text>
  <text x="914" y="650" fill="#484848" font-family="monospace" font-size="9">ses_03ghi · pid 5590</text>

  <!-- ═══════════════════════════════════════════════════════════════ -->
  <!-- CONNECTORS: variant → actor (dashed L-route elbows)           -->
  <!-- Each route: exit variant edge → horizontal/vertical run →     -->
  <!--             turn 90 → enter actor edge. No crossings.         -->
  <!-- ═══════════════════════════════════════════════════════════════ -->

  <!-- V1 (top, left edge x=548) → A1 (top-left, right edge x=300, cy=134) -->
  <polyline points="548,259 440,259 440,134 300,134"
    fill="none" stroke="#505050" stroke-width="1" stroke-dasharray="5 4"/>

  <!-- V2 (right, right edge x=832) → A2 (top-right, left edge x=900, cy=134) -->
  <polyline points="832,380 860,380 860,134 900,134"
    fill="none" stroke="#505050" stroke-width="1" stroke-dasharray="5 4"/>

  <!-- V4 (left, left edge x=368) → A3 (bottom-left, right edge x=300, cy=626) -->
  <polyline points="368,380 340,380 340,626 300,626"
    fill="none" stroke="#505050" stroke-width="1" stroke-dasharray="5 4"/>

  <!-- V3 (bottom, right edge x=652) → A4 (bottom-right, left edge x=900, cy=626) -->
  <polyline points="652,501 860,501 860,626 900,626"
    fill="none" stroke="#505050" stroke-width="1" stroke-dasharray="5 4"/>

  <!-- ═══════════════════════════════════════════════════════════════ -->
  <!-- SUB-AGENT GRIDS                                               -->
  <!--   Each actor gets a bordered grid container with 2-col layout -->
  <!--   Single connector stub from actor → grid box                 -->
  <!--   Top actors: grid below · Bottom actors: grid above          -->
  <!-- ═══════════════════════════════════════════════════════════════ -->

  <!-- ─── A1 sub-agent grid (below actor) ─── 2 sub-agents, 1 row × 2 col -->
  <!-- connector stub: actor bottom → grid top -->
  <line x1="185" y1="168" x2="185" y2="176" stroke="#383838" stroke-width="1"/>
  <!-- grid container -->
  <rect x="82" y="176" width="206" height="28" fill="#0a0c0e" stroke="#333333" stroke-width="1"/>
  <!-- grid label -->
  <text x="88" y="185" fill="#303030" font-family="monospace" font-size="7">sub-agents</text>
  <!-- row 1 -->
  <rect x="88" y="188" width="94" height="12" fill="#0e1012" stroke="#484848" stroke-width="1"/>
  <text x="93" y="198" fill="#808080" font-family="monospace" font-size="8">sa_frontend</text>
  <rect x="188" y="188" width="94" height="12" fill="#0e1012" stroke="#484848" stroke-width="1"/>
  <text x="193" y="198" fill="#808080" font-family="monospace" font-size="8">sa_routing</text>

  <!-- ─── A2 sub-agent grid (below actor) ─── 3 sub-agents, 2 rows × 2 col -->
  <!-- connector stub: actor bottom → grid top -->
  <line x1="1015" y1="168" x2="1015" y2="176" stroke="#383838" stroke-width="1"/>
  <!-- grid container -->
  <rect x="912" y="176" width="206" height="44" fill="#0a0c0e" stroke="#333333" stroke-width="1"/>
  <!-- grid label -->
  <text x="918" y="185" fill="#303030" font-family="monospace" font-size="7">sub-agents</text>
  <!-- row 1 -->
  <rect x="918" y="188" width="94" height="12" fill="#0e1012" stroke="#484848" stroke-width="1"/>
  <text x="923" y="198" fill="#808080" font-family="monospace" font-size="8">sa_cleanup</text>
  <rect x="1018" y="188" width="94" height="12" fill="#0e1012" stroke="#484848" stroke-width="1"/>
  <text x="1023" y="198" fill="#808080" font-family="monospace" font-size="8">sa_testing</text>
  <!-- row 2 -->
  <rect x="918" y="204" width="94" height="12" fill="#0e1012" stroke="#484848" stroke-width="1"/>
  <text x="923" y="214" fill="#808080" font-family="monospace" font-size="8">sa_docs</text>

  <!-- ─── A3 sub-agent grid (above actor) ─── 2 sub-agents, 1 row × 2 col -->
  <!-- connector stub: actor top → grid bottom -->
  <line x1="185" y1="592" x2="185" y2="584" stroke="#383838" stroke-width="1"/>
  <!-- grid container -->
  <rect x="82" y="556" width="206" height="28" fill="#0a0c0e" stroke="#333333" stroke-width="1"/>
  <!-- grid label -->
  <text x="88" y="565" fill="#303030" font-family="monospace" font-size="7">sub-agents</text>
  <!-- row 1 -->
  <rect x="88" y="568" width="94" height="12" fill="#0e1012" stroke="#484848" stroke-width="1"/>
  <text x="93" y="578" fill="#808080" font-family="monospace" font-size="8">sa_review</text>
  <rect x="188" y="568" width="94" height="12" fill="#0e1012" stroke="#484848" stroke-width="1"/>
  <text x="193" y="578" fill="#808080" font-family="monospace" font-size="8">sa_verify</text>

  <!-- ─── A4 sub-agent grid (above actor) ─── 3 sub-agents, 2 rows × 2 col -->
  <!-- connector stub: actor top → grid bottom -->
  <line x1="1015" y1="592" x2="1015" y2="584" stroke="#383838" stroke-width="1"/>
  <!-- grid container -->
  <rect x="912" y="540" width="206" height="44" fill="#0a0c0e" stroke="#333333" stroke-width="1"/>
  <!-- grid label -->
  <text x="918" y="549" fill="#303030" font-family="monospace" font-size="7">sub-agents</text>
  <!-- row 1 -->
  <rect x="918" y="552" width="94" height="12" fill="#0e1012" stroke="#484848" stroke-width="1"/>
  <text x="923" y="562" fill="#808080" font-family="monospace" font-size="8">sa_deploy</text>
  <rect x="1018" y="552" width="94" height="12" fill="#0e1012" stroke="#484848" stroke-width="1"/>
  <text x="1023" y="562" fill="#808080" font-family="monospace" font-size="8">sa_watch</text>
  <!-- row 2 -->
  <rect x="918" y="568" width="94" height="12" fill="#0e1012" stroke="#484848" stroke-width="1"/>
  <text x="923" y="578" fill="#808080" font-family="monospace" font-size="8">sa_lint</text>

  <!-- ═══════════════════════════════════════════════════════════════ -->
  <!-- LEGEND — bottom-left                                          -->
  <!-- ═══════════════════════════════════════════════════════════════ -->
  <rect x="30" y="696" width="500" height="22" fill="none" stroke="#222222" stroke-width="1"/>

  <!-- product -->
  <rect x="42" y="702" width="10" height="10" fill="#111315" stroke="#909090" stroke-width="1"/>
  <text x="58" y="711" fill="#585858" font-family="monospace" font-size="9">product</text>

  <!-- solid spoke -->
  <line x1="118" y1="707" x2="138" y2="707" stroke="#585858" stroke-width="1"/>
  <text x="144" y="711" fill="#585858" font-family="monospace" font-size="9">spoke</text>

  <!-- variant -->
  <rect x="190" y="702" width="10" height="10" fill="#111315" stroke="#707070" stroke-width="1"/>
  <rect x="190" y="702" width="2" height="10" fill="#909090"/>
  <text x="206" y="711" fill="#585858" font-family="monospace" font-size="9">variant</text>

  <!-- dashed connector -->
  <line x1="268" y1="707" x2="290" y2="707" stroke="#505050" stroke-width="1" stroke-dasharray="5 4"/>
  <text x="296" y="711" fill="#585858" font-family="monospace" font-size="9">connector</text>

  <!-- actor -->
  <rect x="374" y="702" width="10" height="10" fill="#111315" stroke="#909090" stroke-width="1"/>
  <text x="390" y="711" fill="#585858" font-family="monospace" font-size="9">actor</text>

  <!-- sub-agent -->
  <rect x="438" y="702" width="10" height="10" fill="#0e1012" stroke="#484848" stroke-width="1"/>
  <text x="454" y="711" fill="#585858" font-family="monospace" font-size="9">sub-agent</text>

  <!-- ═══════════════════════════════════════════════════════════════ -->
  <!-- CAPTION — bottom center                                       -->
  <!-- ═══════════════════════════════════════════════════════════════ -->
  <text x="600" y="742" fill="#404040" font-family="monospace" font-size="12" text-anchor="middle" letter-spacing="2">Round10 Orbit Final</text>
</svg>
