<svg xmlns="http://www.w3.org/2000/svg" width="1200" height="780" viewBox="0 0 1200 780">
  <!-- ===== BACKGROUND ===== -->
  <rect width="1200" height="780" fill="#0c1018"/>

  <!-- ===== OUTER FRAME ===== -->
  <rect x="16" y="12" width="1168" height="756" fill="none" stroke="#606060" stroke-width="1"/>

  <!-- ===== TITLE BAR ===== -->
  <rect x="16" y="12" width="1168" height="28" fill="none" stroke="#404040" stroke-width="0.5"/>
  <rect x="16" y="12" width="4" height="28" fill="#b0b0b0"/>
  <text x="32" y="31" fill="#d8d8d8" font-family="Menlo,monospace" font-size="12" font-weight="700" letter-spacing="1">CANDIDATE A</text>
  <text x="165" y="31" fill="#606060" font-family="Menlo,monospace" font-size="10">Tree-Rail Hybrid // unified panel</text>
  <!-- count badges top-right -->
  <rect x="1058" y="18" width="38" height="16" fill="none" stroke="#505050" stroke-width="1"/>
  <text x="1064" y="30" fill="#a0a0a0" font-family="Menlo,monospace" font-size="9">3 V</text>
  <rect x="1102" y="18" width="38" height="16" fill="none" stroke="#505050" stroke-width="1"/>
  <text x="1108" y="30" fill="#a0a0a0" font-family="Menlo,monospace" font-size="9">4 A</text>
  <rect x="1146" y="18" width="32" height="16" fill="none" stroke="#505050" stroke-width="1"/>
  <text x="1150" y="30" fill="#808080" font-family="Menlo,monospace" font-size="9">8s</text>

  <!-- ================================================================ -->
  <!-- TREE OUTLINE — left column (narrow, structural)                  -->
  <!-- Shows hierarchy as an indented tree: product > variant > actor    -->
  <!-- ================================================================ -->
  <rect x="28" y="52" width="188" height="580" fill="none" stroke="#303030" stroke-width="1"/>
  <text x="38" y="68" fill="#505050" font-family="Menlo,monospace" font-size="9">TREE</text>
  <line x1="28" y1="74" x2="216" y2="74" stroke="#303030" stroke-width="0.5"/>

  <!-- product root -->
  <text x="38" y="92" fill="#c0c0c0" font-family="Menlo,monospace" font-size="10" font-weight="700">prd_2o02efhj</text>
  <text x="170" y="92" fill="#484848" font-family="Menlo,monospace" font-size="8">dirty</text>

  <!-- tree lines: variant indent -->
  <line x1="44" y1="100" x2="44" y2="450" stroke="#383838" stroke-width="1"/>

  <!-- V1: default -->
  <line x1="44" y1="114" x2="56" y2="114" stroke="#585858" stroke-width="1"/>
  <rect x="58" y="106" width="148" height="18" fill="none" stroke="#707070" stroke-width="0.75"/>
  <text x="64" y="119" fill="#d0d0d0" font-family="Menlo,monospace" font-size="10" font-weight="700">default</text>
  <text x="148" y="119" fill="#606060" font-family="Menlo,monospace" font-size="8">dirty</text>

  <!-- actor indent under V1 -->
  <line x1="64" y1="124" x2="64" y2="206" stroke="#303030" stroke-width="1"/>

  <!-- A1 under V1 -->
  <line x1="64" y1="140" x2="76" y2="140" stroke="#484848" stroke-width="1"/>
  <text x="78" y="144" fill="#a0a0a0" font-family="Menlo,monospace" font-size="9">act_2h2b</text>
  <rect x="148" y="132" width="30" height="14" fill="none" stroke="#505050" stroke-width="0.75"/>
  <text x="153" y="143" fill="#70b070" font-family="Menlo,monospace" font-size="8">run</text>
  <text x="90" y="158" fill="#404040" font-family="Menlo,monospace" font-size="7">3 sub-agents</text>

  <!-- A2 under V1 -->
  <line x1="64" y1="174" x2="76" y2="174" stroke="#484848" stroke-width="1"/>
  <text x="78" y="178" fill="#a0a0a0" font-family="Menlo,monospace" font-size="9">act_9xk3</text>
  <rect x="148" y="166" width="34" height="14" fill="none" stroke="#505050" stroke-width="0.75"/>
  <text x="153" y="177" fill="#a08080" font-family="Menlo,monospace" font-size="8">stop</text>
  <text x="90" y="192" fill="#404040" font-family="Menlo,monospace" font-size="7">2 sub-agents</text>

  <!-- V2: clone_0001 -->
  <line x1="44" y1="234" x2="56" y2="234" stroke="#585858" stroke-width="1"/>
  <rect x="58" y="226" width="148" height="18" fill="none" stroke="#707070" stroke-width="0.75"/>
  <text x="64" y="239" fill="#d0d0d0" font-family="Menlo,monospace" font-size="10" font-weight="700">clone_0001</text>
  <text x="148" y="239" fill="#606060" font-family="Menlo,monospace" font-size="8">clean</text>

  <!-- actor indent under V2 -->
  <line x1="64" y1="244" x2="64" y2="288" stroke="#303030" stroke-width="1"/>

  <!-- A3 under V2 -->
  <line x1="64" y1="260" x2="76" y2="260" stroke="#484848" stroke-width="1"/>
  <text x="78" y="264" fill="#a0a0a0" font-family="Menlo,monospace" font-size="9">act_0y4h</text>
  <rect x="148" y="252" width="30" height="14" fill="none" stroke="#505050" stroke-width="0.75"/>
  <text x="153" y="263" fill="#70b070" font-family="Menlo,monospace" font-size="8">run</text>
  <text x="90" y="278" fill="#404040" font-family="Menlo,monospace" font-size="7">3 sub-agents</text>

  <!-- V3: feature/auth -->
  <line x1="44" y1="320" x2="56" y2="320" stroke="#585858" stroke-width="1"/>
  <rect x="58" y="312" width="148" height="18" fill="none" stroke="#707070" stroke-width="0.75"/>
  <text x="64" y="325" fill="#d0d0d0" font-family="Menlo,monospace" font-size="10" font-weight="700">feature/auth</text>
  <text x="148" y="325" fill="#606060" font-family="Menlo,monospace" font-size="8">clean</text>

  <!-- no actors -->
  <line x1="64" y1="330" x2="64" y2="352" stroke="#303030" stroke-width="1" stroke-dasharray="2 3"/>
  <text x="78" y="348" fill="#383838" font-family="Menlo,monospace" font-size="8">no actors</text>


  <!-- ================================================================ -->
  <!-- GRAPHICAL CARDS — right area (detailed cards + sub-agent grids)   -->
  <!-- Rail connects product to variant columns, actors expand below     -->
  <!-- ================================================================ -->

  <!-- divider between tree and graph -->
  <line x1="228" y1="52" x2="228" y2="632" stroke="#303030" stroke-width="1"/>
  <text x="234" y="68" fill="#505050" font-family="Menlo,monospace" font-size="9">DETAIL</text>
  <line x1="228" y1="74" x2="1172" y2="74" stroke="#303030" stroke-width="0.5"/>

  <!-- ===== PRODUCT CARD (top-left of detail area) ===== -->
  <rect x="244" y="86" width="200" height="50" fill="none" stroke="#c0c0c0" stroke-width="1.5"/>
  <rect x="244" y="86" width="4" height="50" fill="#b0b0b0"/>
  <text x="260" y="106" fill="#e8e8e8" font-family="Menlo,monospace" font-size="12" font-weight="700">PRODUCT</text>
  <text x="348" y="106" fill="#909090" font-family="Menlo,monospace" font-size="10">prd_2o02efhj</text>
  <text x="260" y="124" fill="#606060" font-family="Menlo,monospace" font-size="9">@git://.../dark-factory#main</text>

  <!-- stem from product to rail -->
  <line x1="344" y1="136" x2="344" y2="150" stroke="#808080" stroke-width="1" stroke-dasharray="3 3"/>
  <polygon points="344,150 350,156 344,162 338,156" fill="none" stroke="#808080" stroke-width="1"/>
  <line x1="344" y1="162" x2="344" y2="172" stroke="#808080" stroke-width="1"/>

  <!-- ===== HORIZONTAL RAIL ===== -->
  <line x1="344" y1="172" x2="1160" y2="172" stroke="#a0a0a0" stroke-width="2"/>
  <rect x="1156" y="168" width="8" height="8" fill="#a0a0a0"/>

  <!-- rail ticks -->
  <line x1="460" y1="164" x2="460" y2="180" stroke="#a0a0a0" stroke-width="2"/>
  <line x1="760" y1="164" x2="760" y2="180" stroke="#a0a0a0" stroke-width="2"/>
  <line x1="1060" y1="164" x2="1060" y2="180" stroke="#a0a0a0" stroke-width="2"/>


  <!-- ================================================================ -->
  <!-- COL 1: default — 2 actors (A1 + A2), demonstrating 1:N          -->
  <!-- ================================================================ -->
  <line x1="460" y1="180" x2="460" y2="196" stroke="#888888" stroke-width="1"/>

  <!-- VARIANT: default -->
  <rect x="370" y="196" width="180" height="32" fill="none" stroke="#a8a8a8" stroke-width="1"/>
  <text x="384" y="216" fill="#e0e0e0" font-family="Menlo,monospace" font-size="11" font-weight="700">default</text>
  <rect x="496" y="202" width="44" height="18" fill="none" stroke="#505050" stroke-width="0.75"/>
  <text x="504" y="215" fill="#888888" font-family="Menlo,monospace" font-size="9">dirty</text>

  <!-- variant to actor split: Y-fork showing 2 actors -->
  <line x1="460" y1="228" x2="460" y2="240" stroke="#787878" stroke-width="1"/>
  <!-- fork horizontal bar -->
  <line x1="410" y1="240" x2="510" y2="240" stroke="#686868" stroke-width="1"/>
  <!-- fork down to A1 -->
  <line x1="410" y1="240" x2="410" y2="258" stroke="#686868" stroke-width="1"/>
  <!-- fork down to A2 -->
  <line x1="510" y1="240" x2="510" y2="258" stroke="#686868" stroke-width="1"/>

  <!-- ACTOR A1 -->
  <rect x="320" y="258" width="180" height="52" fill="none" stroke="#c0c0c0" stroke-width="1.5"/>
  <rect x="320" y="258" width="4" height="52" fill="#c0c0c0"/>
  <text x="334" y="278" fill="#e8e8e8" font-family="Menlo,monospace" font-size="10" font-weight="700">ACTOR</text>
  <text x="386" y="278" fill="#c0c0c0" font-family="Menlo,monospace" font-size="9">act_2h2bd5ph</text>
  <rect x="454" y="266" width="38" height="14" fill="none" stroke="#686868" stroke-width="1"/>
  <text x="460" y="277" fill="#70b070" font-family="Menlo,monospace" font-size="9">run</text>
  <text x="334" y="298" fill="#707070" font-family="Menlo,monospace" font-size="8">opencode/server</text>

  <!-- A1 sub-agent grid (3 sub-agents) -->
  <line x1="410" y1="310" x2="410" y2="322" stroke="#505050" stroke-width="1"/>
  <rect x="320" y="322" width="180" height="42" fill="none" stroke="#505050" stroke-width="1"/>
  <text x="330" y="334" fill="#606060" font-family="Menlo,monospace" font-size="8">sub-agents</text>
  <text x="490" y="334" fill="#505050" font-family="Menlo,monospace" font-size="8" text-anchor="end">x3</text>
  <line x1="320" y1="338" x2="500" y2="338" stroke="#404040" stroke-width="0.5"/>
  <rect x="324" y="342" width="56" height="16" fill="none" stroke="#606060" stroke-width="0.75"/>
  <text x="330" y="354" fill="#a0a0a0" font-family="Menlo,monospace" font-size="8">explore</text>
  <rect x="384" y="342" width="52" height="16" fill="none" stroke="#606060" stroke-width="0.75"/>
  <text x="392" y="354" fill="#a0a0a0" font-family="Menlo,monospace" font-size="8">docs</text>
  <rect x="440" y="342" width="56" height="16" fill="none" stroke="#606060" stroke-width="0.75"/>
  <text x="446" y="354" fill="#a0a0a0" font-family="Menlo,monospace" font-size="8">gitter</text>

  <!-- ACTOR A2 -->
  <rect x="512" y="258" width="180" height="52" fill="none" stroke="#c0c0c0" stroke-width="1.5"/>
  <rect x="512" y="258" width="4" height="52" fill="#c0c0c0"/>
  <text x="526" y="278" fill="#e8e8e8" font-family="Menlo,monospace" font-size="10" font-weight="700">ACTOR</text>
  <text x="578" y="278" fill="#c0c0c0" font-family="Menlo,monospace" font-size="9">act_9xk3r4qm</text>
  <rect x="646" y="266" width="38" height="14" fill="none" stroke="#686868" stroke-width="1"/>
  <text x="650" y="277" fill="#a08080" font-family="Menlo,monospace" font-size="9">stop</text>
  <text x="526" y="298" fill="#707070" font-family="Menlo,monospace" font-size="8">opencode/server</text>

  <!-- A2 sub-agent grid (2 sub-agents) -->
  <line x1="602" y1="310" x2="602" y2="322" stroke="#505050" stroke-width="1"/>
  <rect x="512" y="322" width="180" height="42" fill="none" stroke="#505050" stroke-width="1"/>
  <text x="522" y="334" fill="#606060" font-family="Menlo,monospace" font-size="8">sub-agents</text>
  <text x="682" y="334" fill="#505050" font-family="Menlo,monospace" font-size="8" text-anchor="end">x2</text>
  <line x1="512" y1="338" x2="692" y2="338" stroke="#404040" stroke-width="0.5"/>
  <rect x="516" y="342" width="82" height="16" fill="none" stroke="#606060" stroke-width="0.75"/>
  <text x="524" y="354" fill="#a0a0a0" font-family="Menlo,monospace" font-size="8">frontend</text>
  <rect x="604" y="342" width="82" height="16" fill="none" stroke="#606060" stroke-width="0.75"/>
  <text x="612" y="354" fill="#a0a0a0" font-family="Menlo,monospace" font-size="8">designer</text>


  <!-- ================================================================ -->
  <!-- COL 2: clone_0001 — 1 actor (A3), 3 sub-agents                  -->
  <!-- ================================================================ -->
  <line x1="760" y1="180" x2="760" y2="196" stroke="#888888" stroke-width="1"/>

  <!-- VARIANT: clone_0001 -->
  <rect x="670" y="196" width="180" height="32" fill="none" stroke="#a8a8a8" stroke-width="1"/>
  <text x="684" y="216" fill="#e0e0e0" font-family="Menlo,monospace" font-size="11" font-weight="700">clone_0001</text>
  <rect x="796" y="202" width="44" height="18" fill="none" stroke="#505050" stroke-width="0.75"/>
  <text x="802" y="215" fill="#888888" font-family="Menlo,monospace" font-size="9">clean</text>

  <!-- variant to actor -->
  <line x1="760" y1="228" x2="760" y2="258" stroke="#787878" stroke-width="1"/>

  <!-- ACTOR A3 -->
  <rect x="670" y="258" width="180" height="52" fill="none" stroke="#c0c0c0" stroke-width="1.5"/>
  <rect x="670" y="258" width="4" height="52" fill="#c0c0c0"/>
  <text x="684" y="278" fill="#e8e8e8" font-family="Menlo,monospace" font-size="10" font-weight="700">ACTOR</text>
  <text x="736" y="278" fill="#c0c0c0" font-family="Menlo,monospace" font-size="9">act_0y4hm8xs</text>
  <rect x="804" y="266" width="38" height="14" fill="none" stroke="#686868" stroke-width="1"/>
  <text x="810" y="277" fill="#70b070" font-family="Menlo,monospace" font-size="9">run</text>
  <text x="684" y="298" fill="#707070" font-family="Menlo,monospace" font-size="8">opencode/server</text>

  <!-- A3 sub-agent grid (3 sub-agents, 2x2 with 1 empty) -->
  <line x1="760" y1="310" x2="760" y2="322" stroke="#505050" stroke-width="1"/>
  <rect x="670" y="322" width="180" height="56" fill="none" stroke="#505050" stroke-width="1"/>
  <text x="680" y="334" fill="#606060" font-family="Menlo,monospace" font-size="8">sub-agents</text>
  <text x="840" y="334" fill="#505050" font-family="Menlo,monospace" font-size="8" text-anchor="end">x3</text>
  <line x1="670" y1="338" x2="850" y2="338" stroke="#404040" stroke-width="0.5"/>
  <rect x="674" y="342" width="82" height="16" fill="none" stroke="#606060" stroke-width="0.75"/>
  <text x="682" y="354" fill="#a0a0a0" font-family="Menlo,monospace" font-size="8">planner</text>
  <rect x="762" y="342" width="82" height="16" fill="none" stroke="#606060" stroke-width="0.75"/>
  <text x="770" y="354" fill="#a0a0a0" font-family="Menlo,monospace" font-size="8">senior</text>
  <rect x="674" y="362" width="82" height="16" fill="none" stroke="#606060" stroke-width="0.75"/>
  <text x="682" y="374" fill="#a0a0a0" font-family="Menlo,monospace" font-size="8">junior</text>


  <!-- ================================================================ -->
  <!-- COL 3: feature/auth — no actors (empty placeholder)             -->
  <!-- ================================================================ -->
  <line x1="1060" y1="180" x2="1060" y2="196" stroke="#888888" stroke-width="1"/>

  <!-- VARIANT: feature/auth -->
  <rect x="970" y="196" width="180" height="32" fill="none" stroke="#a8a8a8" stroke-width="1"/>
  <text x="984" y="216" fill="#e0e0e0" font-family="Menlo,monospace" font-size="11" font-weight="700">feature/auth</text>
  <rect x="1096" y="202" width="44" height="18" fill="none" stroke="#505050" stroke-width="0.75"/>
  <text x="1104" y="215" fill="#888888" font-family="Menlo,monospace" font-size="9">clean</text>

  <!-- empty actor placeholder -->
  <line x1="1060" y1="228" x2="1060" y2="258" stroke="#383838" stroke-width="1" stroke-dasharray="2 4"/>
  <rect x="988" y="258" width="144" height="28" fill="none" stroke="#3a3a3a" stroke-width="1" stroke-dasharray="4 3"/>
  <text x="1060" y="276" fill="#404040" font-family="Menlo,monospace" font-size="9" text-anchor="middle">no actors</text>


  <!-- ================================================================ -->
  <!-- TOPOLOGY SUMMARY — bottom-right of detail area                   -->
  <!-- ================================================================ -->
  <rect x="970" y="420" width="190" height="100" fill="none" stroke="#505050" stroke-width="1"/>
  <text x="984" y="440" fill="#808080" font-family="Menlo,monospace" font-size="10" font-weight="700">TOPOLOGY</text>
  <line x1="984" y1="446" x2="1146" y2="446" stroke="#404040" stroke-width="0.5"/>
  <text x="984" y="462" fill="#707070" font-family="Menlo,monospace" font-size="9">variants ...... 3</text>
  <text x="984" y="478" fill="#707070" font-family="Menlo,monospace" font-size="9">actors ........ 3</text>
  <text x="984" y="494" fill="#707070" font-family="Menlo,monospace" font-size="9">sub-agents .... 8</text>
  <text x="984" y="510" fill="#505050" font-family="Menlo,monospace" font-size="8">run: 2  stop: 1  empty: 1</text>


  <!-- ================================================================ -->
  <!-- LEGEND — bottom                                                   -->
  <!-- ================================================================ -->
  <line x1="28" y1="648" x2="1172" y2="648" stroke="#383838" stroke-width="0.5"/>
  <text x="600" y="644" fill="#404040" font-family="Menlo,monospace" font-size="8" text-anchor="middle">LEGEND</text>

  <!-- tree outline -->
  <line x1="48" y1="672" x2="48" y2="686" stroke="#383838" stroke-width="1"/>
  <line x1="48" y1="679" x2="60" y2="679" stroke="#484848" stroke-width="1"/>
  <text x="68" y="683" fill="#606060" font-family="Menlo,monospace" font-size="9">tree indent</text>

  <!-- product -->
  <rect x="180" y="672" width="16" height="12" fill="none" stroke="#c0c0c0" stroke-width="1.5"/>
  <rect x="180" y="672" width="3" height="12" fill="#b0b0b0"/>
  <text x="202" y="683" fill="#606060" font-family="Menlo,monospace" font-size="9">product</text>

  <!-- rail -->
  <line x1="280" y1="679" x2="314" y2="679" stroke="#a0a0a0" stroke-width="2"/>
  <text x="322" y="683" fill="#606060" font-family="Menlo,monospace" font-size="9">rail</text>

  <!-- variant -->
  <rect x="374" y="672" width="16" height="12" fill="none" stroke="#a8a8a8" stroke-width="1"/>
  <text x="396" y="683" fill="#606060" font-family="Menlo,monospace" font-size="9">variant</text>

  <!-- Y-fork -->
  <line x1="480" y1="672" x2="480" y2="678" stroke="#686868" stroke-width="1"/>
  <line x1="472" y1="678" x2="488" y2="678" stroke="#686868" stroke-width="1"/>
  <line x1="472" y1="678" x2="472" y2="686" stroke="#686868" stroke-width="1"/>
  <line x1="488" y1="678" x2="488" y2="686" stroke="#686868" stroke-width="1"/>
  <text x="498" y="683" fill="#606060" font-family="Menlo,monospace" font-size="9">Y-fork (1:N)</text>

  <!-- actor -->
  <rect x="612" y="672" width="16" height="12" fill="none" stroke="#c0c0c0" stroke-width="1.5"/>
  <rect x="612" y="672" width="3" height="12" fill="#c0c0c0"/>
  <text x="634" y="683" fill="#606060" font-family="Menlo,monospace" font-size="9">actor</text>

  <!-- sub-agent grid -->
  <rect x="704" y="672" width="24" height="12" fill="none" stroke="#505050" stroke-width="1"/>
  <rect x="706" y="674" width="9" height="8" fill="none" stroke="#606060" stroke-width="0.5"/>
  <rect x="717" y="674" width="9" height="8" fill="none" stroke="#606060" stroke-width="0.5"/>
  <text x="734" y="683" fill="#606060" font-family="Menlo,monospace" font-size="9">sub-grid</text>

  <!-- status badges -->
  <text x="48" y="710" fill="#505050" font-family="Menlo,monospace" font-size="8">status:</text>
  <rect x="112" y="700" width="32" height="14" fill="none" stroke="#505050" stroke-width="0.75"/>
  <text x="118" y="711" fill="#70b070" font-family="Menlo,monospace" font-size="9">run</text>
  <rect x="152" y="700" width="38" height="14" fill="none" stroke="#505050" stroke-width="0.75"/>
  <text x="158" y="711" fill="#a08080" font-family="Menlo,monospace" font-size="9">stop</text>

  <!-- concept note -->
  <text x="280" y="710" fill="#383838" font-family="Menlo,monospace" font-size="8">Tree left = navigation index  |  Detail right = expanded cards  |  Y-fork = 1 variant : N actors</text>


  <!-- ===== BOTTOM CAPTION BAR ===== -->
  <rect x="16" y="740" width="1168" height="1" fill="#585858"/>
  <text x="600" y="762" fill="#888888" font-family="Menlo,monospace" font-size="12" font-weight="700" text-anchor="middle" letter-spacing="2">Round11 Candidate A // Tree-Rail Hybrid</text>
</svg>
