<svg xmlns="http://www.w3.org/2000/svg" width="1200" height="820" viewBox="0 0 1200 820">
  <!-- ===== BACKGROUND ===== -->
  <rect width="1200" height="820" fill="#0a0e14"/>

  <!-- ===== OUTER FRAME ===== -->
  <rect x="12" y="10" width="1176" height="800" fill="none" stroke="#505050" stroke-width="1"/>

  <!-- ===== TITLE BAR ===== -->
  <rect x="12" y="10" width="1176" height="28" fill="#0d1119" stroke="#404040" stroke-width="0.5"/>
  <rect x="12" y="10" width="4" height="28" fill="#5abf7a"/>
  <text x="28" y="29" fill="#d8d8d8" font-family="Menlo,monospace" font-size="12" font-weight="700" letter-spacing="1">CANDIDATE D</text>
  <text x="165" y="29" fill="#5abf7a" font-family="Menlo,monospace" font-size="10">Accordion Rail</text>
  <text x="310" y="29" fill="#484848" font-family="Menlo,monospace" font-size="10">// dense indented rail, expand/collapse affordance, inline metrics</text>
  <rect x="1044" y="16" width="40" height="16" rx="3" fill="none" stroke="#2a5a3a" stroke-width="1"/>
  <text x="1052" y="28" fill="#5abf7a" font-family="Menlo,monospace" font-size="9">3 V</text>
  <rect x="1090" y="16" width="40" height="16" rx="3" fill="none" stroke="#2a5a3a" stroke-width="1"/>
  <text x="1098" y="28" fill="#5abf7a" font-family="Menlo,monospace" font-size="9">3 A</text>
  <rect x="1136" y="16" width="44" height="16" rx="3" fill="none" stroke="#2a5a3a" stroke-width="1"/>
  <text x="1143" y="28" fill="#5abf7a" font-family="Menlo,monospace" font-size="9">8 sa</text>

  <!-- ================================================================ -->
  <!-- CONCEPT: Dense vertical list with explicit expand/collapse        -->
  <!-- chevrons on every node. When collapsed, shows 1-line summary     -->
  <!-- with inline metric chips (counts, status). When expanded,        -->
  <!-- reveals children at next indent level. Accordion metaphor:       -->
  <!-- only what you need is visible. Maximum density for scale.        -->
  <!--                                                                  -->
  <!-- KEY DIFFERENCE from Round11-D: explicit chevron UI, inline       -->
  <!-- metric chips at every level, collapse states shown, and          -->
  <!-- detail panel on the right for focused node.                      -->
  <!-- ================================================================ -->

  <!-- ===== LEFT PANEL: Accordion Rail ===== -->
  <rect x="24" y="48" width="640" height="660" rx="3" fill="#0b1018" stroke="#2a3a2a" stroke-width="1"/>
  <text x="36" y="66" fill="#2a5a3a" font-family="Menlo,monospace" font-size="9">ACCORDION RAIL</text>
  <line x1="36" y1="72" x2="652" y2="72" stroke="#1a2a1a" stroke-width="0.5"/>

  <!-- ================================================================ -->
  <!-- PRODUCT ROW — depth 0, expanded                                  -->
  <!-- ================================================================ -->
  <rect x="36" y="80" width="616" height="36" rx="3" fill="#0e1520" stroke="#3a5a3a" stroke-width="1"/>
  <!-- expand/collapse chevron -->
  <polygon points="48,92 58,98 48,104" fill="#5abf7a"/>
  <text x="66" y="96" fill="#404040" font-family="Menlo,monospace" font-size="8">d0</text>
  <!-- product label -->
  <text x="88" y="98" fill="#e0e8e0" font-family="Menlo,monospace" font-size="11" font-weight="700">PRODUCT</text>
  <text x="180" y="98" fill="#5abf7a" font-family="Menlo,monospace" font-size="9">prd_2o02efhj</text>
  <text x="328" y="98" fill="#2a4a2a" font-family="Menlo,monospace" font-size="8">@git://...#main</text>
  <!-- inline metric chips -->
  <rect x="524" y="86" width="36" height="16" rx="2" fill="#0d1a0d" stroke="#2a5a3a" stroke-width="0.75"/>
  <text x="532" y="98" fill="#5abf7a" font-family="Menlo,monospace" font-size="8">3V</text>
  <rect x="566" y="86" width="36" height="16" rx="2" fill="#0d1a0d" stroke="#2a5a3a" stroke-width="0.75"/>
  <text x="574" y="98" fill="#5abf7a" font-family="Menlo,monospace" font-size="8">3A</text>
  <rect x="608" y="86" width="36" height="16" rx="2" fill="#0d1a0d" stroke="#2a5a3a" stroke-width="0.75"/>
  <text x="614" y="98" fill="#5abf7a" font-family="Menlo,monospace" font-size="8">8sa</text>


  <!-- ================================================================ -->
  <!-- V1 ROW: "default" — depth 1, expanded                           -->
  <!-- ================================================================ -->
  <!-- indent guide -->
  <line x1="50" y1="116" x2="50" y2="436" stroke="#1a2a1a" stroke-width="1"/>

  <rect x="68" y="124" width="580" height="32" rx="3" fill="#0d1520" stroke="#3a4a5a" stroke-width="1"/>
  <!-- expanded chevron (points down) -->
  <polygon points="78,136 88,136 83,144" fill="#6a8aaa"/>
  <text x="96" y="140" fill="#3a4a5a" font-family="Menlo,monospace" font-size="8">d1</text>
  <!-- connector line from parent -->
  <line x1="50" y1="140" x2="68" y2="140" stroke="#2a3a2a" stroke-width="1"/>
  <text x="114" y="142" fill="#c0d0e0" font-family="Menlo,monospace" font-size="11" font-weight="700">default</text>
  <!-- inline metrics -->
  <rect x="226" y="130" width="50" height="18" rx="2" fill="none" stroke="#5a4a3a" stroke-width="0.75"/>
  <text x="236" y="143" fill="#c0956a" font-family="Menlo,monospace" font-size="9">dirty</text>
  <rect x="500" y="130" width="56" height="18" rx="2" fill="#0d1a0d" stroke="#2a5a3a" stroke-width="0.75"/>
  <text x="508" y="143" fill="#70b070" font-family="Menlo,monospace" font-size="8">1 run</text>
  <rect x="562" y="130" width="56" height="18" rx="2" fill="#1a0d0d" stroke="#5a2a2a" stroke-width="0.75"/>
  <text x="568" y="143" fill="#a08080" font-family="Menlo,monospace" font-size="8">1 stop</text>
  <rect x="624" y="130" width="20" height="18" rx="2" fill="#0d1a0d" stroke="#2a5a3a" stroke-width="0.75"/>
  <text x="628" y="143" fill="#4a6a4a" font-family="Menlo,monospace" font-size="8">5s</text>


  <!-- ================================================================ -->
  <!-- A1 ROW: act_2h2bd5ph — depth 2, expanded                        -->
  <!-- ================================================================ -->
  <!-- indent guide d2 -->
  <line x1="82" y1="156" x2="82" y2="328" stroke="#1a2a1a" stroke-width="1"/>
  <line x1="50" y1="182" x2="50" y2="182" stroke="#1a2a1a" stroke-width="1"/>

  <rect x="100" y="164" width="548" height="32" rx="3" fill="#0d1520" stroke="#4a6a4a" stroke-width="1.5"/>
  <rect x="100" y="164" width="4" height="32" rx="2" fill="#70b070"/>
  <!-- expanded chevron -->
  <polygon points="112,176 122,176 117,184" fill="#70b070"/>
  <text x="130" y="180" fill="#2a4a2a" font-family="Menlo,monospace" font-size="8">d2</text>
  <!-- connector -->
  <line x1="82" y1="180" x2="100" y2="180" stroke="#2a3a2a" stroke-width="1"/>
  <text x="148" y="182" fill="#e0e8e0" font-family="Menlo,monospace" font-size="10" font-weight="700">act_2h2bd5ph</text>
  <rect x="310" y="170" width="44" height="18" rx="2" fill="#1a2a1a" stroke="#4a6a4a" stroke-width="0.75"/>
  <text x="320" y="183" fill="#70b070" font-family="Menlo,monospace" font-size="9">run</text>
  <text x="364" y="183" fill="#304030" font-family="Menlo,monospace" font-size="8">opencode/server</text>
  <rect x="602" y="170" width="40" height="18" rx="2" fill="#0d1a0d" stroke="#2a5a3a" stroke-width="0.75"/>
  <text x="610" y="183" fill="#4a6a4a" font-family="Menlo,monospace" font-size="8">3sa</text>

  <!-- ===== SUB-AGENT ROWS — depth 3 ===== -->
  <line x1="114" y1="196" x2="114" y2="262" stroke="#1a2a1a" stroke-width="1"/>

  <!-- sa1: explore -->
  <line x1="114" y1="212" x2="130" y2="212" stroke="#1a2a1a" stroke-width="1"/>
  <rect x="130" y="202" width="280" height="22" rx="2" fill="#0b1018" stroke="#2a3a2a" stroke-width="0.75"/>
  <text x="140" y="210" fill="#1a2a1a" font-family="Menlo,monospace" font-size="8">d3</text>
  <text x="160" y="216" fill="#6a9a6a" font-family="Menlo,monospace" font-size="9">explore</text>
  <text x="240" y="216" fill="#2a4a2a" font-family="Menlo,monospace" font-size="8">thread:t_01  active</text>

  <!-- sa2: docs -->
  <line x1="114" y1="232" x2="130" y2="232" stroke="#1a2a1a" stroke-width="1"/>
  <rect x="130" y="228" width="280" height="22" rx="2" fill="#0b1018" stroke="#2a3a2a" stroke-width="0.75"/>
  <text x="140" y="236" fill="#1a2a1a" font-family="Menlo,monospace" font-size="8">d3</text>
  <text x="160" y="242" fill="#6a9a6a" font-family="Menlo,monospace" font-size="9">docs</text>
  <text x="240" y="242" fill="#2a4a2a" font-family="Menlo,monospace" font-size="8">thread:t_02  idle</text>

  <!-- sa3: gitter -->
  <line x1="114" y1="258" x2="130" y2="258" stroke="#1a2a1a" stroke-width="1"/>
  <rect x="130" y="254" width="280" height="22" rx="2" fill="#0b1018" stroke="#2a3a2a" stroke-width="0.75"/>
  <text x="140" y="262" fill="#1a2a1a" font-family="Menlo,monospace" font-size="8">d3</text>
  <text x="160" y="268" fill="#6a9a6a" font-family="Menlo,monospace" font-size="9">gitter</text>
  <text x="240" y="268" fill="#2a4a2a" font-family="Menlo,monospace" font-size="8">thread:t_03  idle</text>


  <!-- ================================================================ -->
  <!-- A2 ROW: act_9xk3r4qm — depth 2, COLLAPSED                      -->
  <!-- Shows 1-line collapsed state with metric summary                 -->
  <!-- ================================================================ -->
  <rect x="100" y="288" width="548" height="32" rx="3" fill="#0d1520" stroke="#5a3a3a" stroke-width="1.5"/>
  <rect x="100" y="288" width="4" height="32" rx="2" fill="#a07070"/>
  <!-- collapsed chevron (points right) -->
  <polygon points="112,298 122,304 112,310" fill="#a08080"/>
  <text x="130" y="304" fill="#4a2a2a" font-family="Menlo,monospace" font-size="8">d2</text>
  <!-- connector -->
  <line x1="82" y1="304" x2="100" y2="304" stroke="#2a3a2a" stroke-width="1"/>
  <text x="148" y="306" fill="#c0b0b0" font-family="Menlo,monospace" font-size="10" font-weight="700">act_9xk3r4qm</text>
  <rect x="310" y="294" width="44" height="18" rx="2" fill="#2a1a1a" stroke="#6a4a4a" stroke-width="0.75"/>
  <text x="318" y="307" fill="#a08080" font-family="Menlo,monospace" font-size="9">stop</text>
  <text x="364" y="307" fill="#403030" font-family="Menlo,monospace" font-size="8">opencode/server</text>
  <!-- collapsed summary: sub-agent names inline -->
  <rect x="510" y="294" width="44" height="18" rx="2" fill="#150d0d" stroke="#3a2a2a" stroke-width="0.75"/>
  <text x="516" y="307" fill="#6a4a4a" font-family="Menlo,monospace" font-size="8">2sa</text>
  <text x="560" y="307" fill="#3a2a2a" font-family="Menlo,monospace" font-size="8">frontend,designer</text>


  <!-- ================================================================ -->
  <!-- V2 ROW: "clone_0001" — depth 1, expanded                        -->
  <!-- ================================================================ -->
  <rect x="68" y="340" width="580" height="32" rx="3" fill="#0d1520" stroke="#3a4a5a" stroke-width="1"/>
  <polygon points="78,352 88,352 83,360" fill="#6a8aaa"/>
  <text x="96" y="356" fill="#3a4a5a" font-family="Menlo,monospace" font-size="8">d1</text>
  <line x1="50" y1="356" x2="68" y2="356" stroke="#2a3a2a" stroke-width="1"/>
  <text x="114" y="358" fill="#c0d0e0" font-family="Menlo,monospace" font-size="11" font-weight="700">clone_0001</text>
  <rect x="246" y="346" width="50" height="18" rx="2" fill="none" stroke="#3a5a3a" stroke-width="0.75"/>
  <text x="256" y="359" fill="#6a9a6a" font-family="Menlo,monospace" font-size="9">clean</text>
  <rect x="564" y="346" width="56" height="18" rx="2" fill="#0d1a0d" stroke="#2a5a3a" stroke-width="0.75"/>
  <text x="572" y="359" fill="#70b070" font-family="Menlo,monospace" font-size="8">1 run</text>
  <rect x="626" y="346" width="18" height="18" rx="2" fill="#0d1a0d" stroke="#2a5a3a" stroke-width="0.75"/>
  <text x="629" y="359" fill="#4a6a4a" font-family="Menlo,monospace" font-size="8">3s</text>

  <!-- A3 ROW — depth 2, collapsed -->
  <line x1="82" y1="372" x2="82" y2="396" stroke="#1a2a1a" stroke-width="1"/>
  <rect x="100" y="380" width="548" height="32" rx="3" fill="#0d1520" stroke="#4a6a4a" stroke-width="1.5"/>
  <rect x="100" y="380" width="4" height="32" rx="2" fill="#70b070"/>
  <polygon points="112,390 122,396 112,402" fill="#70b070"/>
  <text x="130" y="396" fill="#2a4a2a" font-family="Menlo,monospace" font-size="8">d2</text>
  <line x1="82" y1="396" x2="100" y2="396" stroke="#2a3a2a" stroke-width="1"/>
  <text x="148" y="398" fill="#e0e8e0" font-family="Menlo,monospace" font-size="10" font-weight="700">act_0y4hm8xs</text>
  <rect x="310" y="386" width="44" height="18" rx="2" fill="#1a2a1a" stroke="#4a6a4a" stroke-width="0.75"/>
  <text x="320" y="399" fill="#70b070" font-family="Menlo,monospace" font-size="9">run</text>
  <text x="364" y="399" fill="#304030" font-family="Menlo,monospace" font-size="8">opencode/server</text>
  <rect x="510" y="386" width="44" height="18" rx="2" fill="#0d1a0d" stroke="#2a5a3a" stroke-width="0.75"/>
  <text x="516" y="399" fill="#4a6a4a" font-family="Menlo,monospace" font-size="8">3sa</text>
  <text x="560" y="399" fill="#2a4a2a" font-family="Menlo,monospace" font-size="8">planner,senior,junior</text>


  <!-- ================================================================ -->
  <!-- V3 ROW: "feature/auth" — depth 1, collapsed (no children)        -->
  <!-- ================================================================ -->
  <rect x="68" y="424" width="580" height="32" rx="3" fill="#0d1520" stroke="#2a3a4a" stroke-width="1"/>
  <!-- collapsed chevron (but empty, so dimmed) -->
  <rect x="78" y="436" width="10" height="10" rx="1" fill="none" stroke="#1a2a3a" stroke-width="0.75"/>
  <text x="82" y="444" fill="#1a2a3a" font-family="Menlo,monospace" font-size="7">-</text>
  <text x="96" y="442" fill="#3a4a5a" font-family="Menlo,monospace" font-size="8">d1</text>
  <line x1="50" y1="440" x2="68" y2="440" stroke="#1a2a1a" stroke-width="1"/>
  <text x="114" y="444" fill="#808090" font-family="Menlo,monospace" font-size="11" font-weight="700">feature/auth</text>
  <rect x="260" y="430" width="50" height="18" rx="2" fill="none" stroke="#3a5a3a" stroke-width="0.75"/>
  <text x="270" y="443" fill="#6a9a6a" font-family="Menlo,monospace" font-size="9">clean</text>
  <rect x="564" y="430" width="64" height="18" rx="2" fill="none" stroke="#1a2a3a" stroke-width="0.75"/>
  <text x="572" y="443" fill="#2a3a4a" font-family="Menlo,monospace" font-size="8">0 actors</text>


  <!-- ================================================================ -->
  <!-- RIGHT PANEL: Detail / Focus View                                 -->
  <!-- Shows the currently selected node in full detail                 -->
  <!-- ================================================================ -->
  <rect x="680" y="48" width="496" height="660" rx="3" fill="#0b1018" stroke="#2a3a2a" stroke-width="1"/>
  <text x="692" y="66" fill="#2a5a3a" font-family="Menlo,monospace" font-size="9">DETAIL // focused: act_2h2bd5ph</text>
  <line x1="692" y1="72" x2="1164" y2="72" stroke="#1a2a1a" stroke-width="0.5"/>

  <!-- Full detail card for A1 -->
  <rect x="696" y="82" width="464" height="180" rx="4" fill="#0e1520" stroke="#4a6a4a" stroke-width="1.5"/>
  <rect x="696" y="82" width="4" height="180" rx="2" fill="#70b070"/>

  <text x="712" y="104" fill="#e0e8e0" font-family="Menlo,monospace" font-size="13" font-weight="700">ACTOR</text>
  <text x="790" y="104" fill="#70b070" font-family="Menlo,monospace" font-size="11">act_2h2bd5ph</text>
  <rect x="1084" y="90" width="60" height="18" rx="2" fill="#1a2a1a" stroke="#4a6a4a" stroke-width="0.75"/>
  <text x="1098" y="103" fill="#70b070" font-family="Menlo,monospace" font-size="10">run</text>

  <line x1="712" y1="112" x2="1148" y2="112" stroke="#1a2a1a" stroke-width="0.5"/>

  <text x="712" y="130" fill="#4a6a4a" font-family="Menlo,monospace" font-size="9">provider</text>
  <text x="812" y="130" fill="#8aaa8a" font-family="Menlo,monospace" font-size="9">opencode/server</text>

  <text x="712" y="148" fill="#4a6a4a" font-family="Menlo,monospace" font-size="9">variant</text>
  <text x="812" y="148" fill="#8aaa8a" font-family="Menlo,monospace" font-size="9">default (dirty)</text>

  <text x="712" y="166" fill="#4a6a4a" font-family="Menlo,monospace" font-size="9">session</text>
  <text x="812" y="166" fill="#8aaa8a" font-family="Menlo,monospace" font-size="9">ses_01kf28xh3a</text>

  <text x="712" y="184" fill="#4a6a4a" font-family="Menlo,monospace" font-size="9">working</text>
  <text x="812" y="184" fill="#8aaa8a" font-family="Menlo,monospace" font-size="9">@local:///Users/.../dark-factory</text>

  <!-- Sub-agents expanded detail -->
  <text x="712" y="210" fill="#506a50" font-family="Menlo,monospace" font-size="10" font-weight="700">SUB-AGENTS</text>
  <text x="820" y="210" fill="#2a4a2a" font-family="Menlo,monospace" font-size="9">3 total</text>
  <line x1="712" y1="216" x2="1148" y2="216" stroke="#1a2a1a" stroke-width="0.5"/>

  <!-- sub-agent detail rows -->
  <rect x="712" y="224" width="440" height="28" rx="2" fill="#0d150d" stroke="#2a3a2a" stroke-width="0.75"/>
  <text x="724" y="240" fill="#6a9a6a" font-family="Menlo,monospace" font-size="10" font-weight="700">explore</text>
  <text x="812" y="240" fill="#3a5a3a" font-family="Menlo,monospace" font-size="8">thread:t_01</text>
  <rect x="1088" y="230" width="52" height="16" rx="2" fill="#0d1a0d" stroke="#3a5a3a" stroke-width="0.75"/>
  <text x="1098" y="242" fill="#5abf7a" font-family="Menlo,monospace" font-size="8">active</text>

  <rect x="712" y="256" width="440" height="24" rx="2" fill="#0b1018" stroke="#1a2a1a" stroke-width="0.75"/>
  <text x="724" y="272" fill="#6a9a6a" font-family="Menlo,monospace" font-size="10" font-weight="700">docs</text>
  <text x="812" y="272" fill="#3a5a3a" font-family="Menlo,monospace" font-size="8">thread:t_02</text>
  <rect x="1088" y="260" width="52" height="16" rx="2" fill="none" stroke="#2a3a2a" stroke-width="0.75"/>
  <text x="1102" y="272" fill="#3a5a3a" font-family="Menlo,monospace" font-size="8">idle</text>

  <rect x="712" y="284" width="440" height="24" rx="2" fill="#0b1018" stroke="#1a2a1a" stroke-width="0.75"/>
  <text x="724" y="300" fill="#6a9a6a" font-family="Menlo,monospace" font-size="10" font-weight="700">gitter</text>
  <text x="812" y="300" fill="#3a5a3a" font-family="Menlo,monospace" font-size="8">thread:t_03</text>
  <rect x="1088" y="288" width="52" height="16" rx="2" fill="none" stroke="#2a3a2a" stroke-width="0.75"/>
  <text x="1102" y="300" fill="#3a5a3a" font-family="Menlo,monospace" font-size="8">idle</text>

  <!-- Action bar -->
  <rect x="696" y="322" width="464" height="28" rx="3" fill="#0d1520" stroke="#1a2a1a" stroke-width="0.75"/>
  <text x="712" y="340" fill="#2a5a3a" font-family="Menlo,monospace" font-size="9">[Enter] attach   [m] messages   [p] poll   [x] move variant   [d] delete</text>


  <!-- ================================================================ -->
  <!-- INTERACTION ANNOTATIONS on left panel                            -->
  <!-- ================================================================ -->
  <!-- Focus indicator: highlight bar on the A1 row -->
  <rect x="98" y="162" width="4" height="36" rx="2" fill="#5abf7a"/>

  <!-- Selection cursor hint -->
  <text x="36" y="508" fill="#1a2a1a" font-family="Menlo,monospace" font-size="8">KEYBINDS</text>
  <line x1="36" y1="512" x2="180" y2="512" stroke="#1a2a1a" stroke-width="0.5"/>
  <text x="36" y="526" fill="#1a3a2a" font-family="Menlo,monospace" font-size="8">[j/k]   navigate</text>
  <text x="36" y="540" fill="#1a3a2a" font-family="Menlo,monospace" font-size="8">[l/h]   expand / collapse</text>
  <text x="36" y="554" fill="#1a3a2a" font-family="Menlo,monospace" font-size="8">[Enter] focus in detail</text>
  <text x="36" y="568" fill="#1a3a2a" font-family="Menlo,monospace" font-size="8">[/]     search filter</text>
  <text x="36" y="582" fill="#1a3a2a" font-family="Menlo,monospace" font-size="8">[1-3]   collapse to depth</text>


  <!-- ================================================================ -->
  <!-- TOPOLOGY SUMMARY — bottom of detail panel                        -->
  <!-- ================================================================ -->
  <rect x="696" y="380" width="464" height="100" rx="3" fill="#0d1119" stroke="#2a5a3a" stroke-width="1"/>
  <text x="712" y="400" fill="#5abf7a" font-family="Menlo,monospace" font-size="10" font-weight="700">TOPOLOGY</text>
  <line x1="712" y1="406" x2="1148" y2="406" stroke="#1a2a1a" stroke-width="0.5"/>
  <text x="712" y="424" fill="#3a6a4a" font-family="Menlo,monospace" font-size="9">product ............ 1</text>
  <text x="712" y="440" fill="#3a6a4a" font-family="Menlo,monospace" font-size="9">variants ........... 3  (1 dirty, 2 clean)</text>
  <text x="712" y="456" fill="#3a6a4a" font-family="Menlo,monospace" font-size="9">actors ............. 3  (2 run, 1 stop)</text>
  <text x="712" y="472" fill="#3a6a4a" font-family="Menlo,monospace" font-size="9">sub-agents ......... 8  (1 active, 7 idle)</text>

  <!-- Depth summary bar -->
  <text x="712" y="500" fill="#2a5a3a" font-family="Menlo,monospace" font-size="8">DEPTH MAP</text>
  <text x="712" y="516" fill="#1a3a2a" font-family="Menlo,monospace" font-size="8">d0: product (1)  d1: variants (3)  d2: actors (3)  d3: sub-agents (8)</text>


  <!-- ================================================================ -->
  <!-- LEGEND — bottom bar                                               -->
  <!-- ================================================================ -->
  <line x1="24" y1="720" x2="1176" y2="720" stroke="#1a2a1a" stroke-width="0.5"/>
  <text x="600" y="716" fill="#1a2a1a" font-family="Menlo,monospace" font-size="8" text-anchor="middle">LEGEND</text>

  <!-- expanded chevron -->
  <polygon points="48,738 58,738 53,746" fill="#5abf7a"/>
  <text x="66" y="742" fill="#3a6a4a" font-family="Menlo,monospace" font-size="9">expanded</text>

  <!-- collapsed chevron -->
  <polygon points="156,734 166,740 156,746" fill="#6a8a6a"/>
  <text x="174" y="742" fill="#3a6a4a" font-family="Menlo,monospace" font-size="9">collapsed</text>

  <!-- empty marker -->
  <rect x="272" y="734" width="10" height="12" rx="1" fill="none" stroke="#2a3a4a" stroke-width="0.75"/>
  <text x="276" y="744" fill="#2a3a4a" font-family="Menlo,monospace" font-size="7">-</text>
  <text x="290" y="742" fill="#3a6a4a" font-family="Menlo,monospace" font-size="9">no children</text>

  <!-- depth label -->
  <text x="398" y="742" fill="#1a2a1a" font-family="Menlo,monospace" font-size="8">d0</text>
  <text x="414" y="742" fill="#3a6a4a" font-family="Menlo,monospace" font-size="9">depth label</text>

  <!-- indent guide -->
  <line x1="504" y1="732" x2="504" y2="748" stroke="#1a2a1a" stroke-width="1"/>
  <line x1="504" y1="740" x2="518" y2="740" stroke="#1a2a1a" stroke-width="1"/>
  <text x="524" y="742" fill="#3a6a4a" font-family="Menlo,monospace" font-size="9">indent guide</text>

  <!-- metric chip -->
  <rect x="624" y="734" width="32" height="14" rx="2" fill="#0d1a0d" stroke="#2a5a3a" stroke-width="0.75"/>
  <text x="630" y="744" fill="#4a6a4a" font-family="Menlo,monospace" font-size="7">3sa</text>
  <text x="662" y="742" fill="#3a6a4a" font-family="Menlo,monospace" font-size="9">metric chip</text>

  <!-- focus bar -->
  <rect x="758" y="734" width="4" height="14" rx="1" fill="#5abf7a"/>
  <text x="770" y="742" fill="#3a6a4a" font-family="Menlo,monospace" font-size="9">focus cursor</text>

  <!-- status -->
  <text x="48" y="770" fill="#1a2a1a" font-family="Menlo,monospace" font-size="8">status:</text>
  <rect x="112" y="760" width="36" height="14" rx="2" fill="#1a2a1a" stroke="#4a6a4a" stroke-width="0.75"/>
  <text x="120" y="771" fill="#70b070" font-family="Menlo,monospace" font-size="9">run</text>
  <rect x="156" y="760" width="40" height="14" rx="2" fill="#2a1a1a" stroke="#6a4a4a" stroke-width="0.75"/>
  <text x="164" y="771" fill="#a08080" font-family="Menlo,monospace" font-size="9">stop</text>

  <text x="280" y="770" fill="#0a1a0a" font-family="Menlo,monospace" font-size="8">Accordion rail: expand/collapse per node  |  Detail panel: focused node full info  |  Inline metrics: summary without expanding  |  Depth-aware collapse shortcuts</text>


  <!-- ===== BOTTOM CAPTION ===== -->
  <rect x="12" y="790" width="1176" height="1" fill="#2a5a3a"/>
  <text x="600" y="806" fill="#5abf7a" font-family="Menlo,monospace" font-size="12" font-weight="700" text-anchor="middle" letter-spacing="2">Round12 Candidate D // Accordion Rail</text>
</svg>
