<svg xmlns="http://www.w3.org/2000/svg" width="1100" height="560" viewBox="0 0 1100 560">
  <rect width="1100" height="560" fill="#0b0f15"/>

  <text x="20" y="28" fill="#e6e6e6" font-family="monospace" font-size="18">Station B // Simple Monochrome</text>

  <rect x="20" y="44" width="1060" height="496" fill="none" stroke="#9a9a9a" stroke-width="1"/>

  <rect x="52" y="78" width="430" height="70" fill="none" stroke="#d0d0d0" stroke-width="1"/>
  <text x="66" y="102" fill="#f0f0f0" font-family="monospace" font-size="13">PRODUCT prd_2o02efhj...</text>
  <text x="66" y="122" fill="#cfcfcf" font-family="monospace" font-size="12">dirty 2v 1d 1dr  @git://.../dark-factory#main</text>

  <line x1="90" y1="210" x2="1000" y2="210" stroke="#d0d0d0" stroke-width="2"/>
  <line x1="320" y1="210" x2="320" y2="250" stroke="#b8b8b8" stroke-width="1"/>
  <line x1="720" y1="210" x2="720" y2="250" stroke="#b8b8b8" stroke-width="1"/>

  <rect x="250" y="250" width="140" height="48" fill="none" stroke="#bdbdbd" stroke-width="1"/>
  <text x="262" y="276" fill="#efefef" font-family="monospace" font-size="12">clone_0000</text>
  <text x="262" y="292" fill="#cdcdcd" font-family="monospace" font-size="11">clean</text>

  <rect x="650" y="250" width="140" height="48" fill="none" stroke="#bdbdbd" stroke-width="1"/>
  <text x="662" y="276" fill="#efefef" font-family="monospace" font-size="12">default</text>
  <text x="662" y="292" fill="#cdcdcd" font-family="monospace" font-size="11">dirty +21 -0</text>

  <line x1="320" y1="298" x2="320" y2="338" stroke="#a8a8a8" stroke-width="1"/>
  <line x1="720" y1="298" x2="720" y2="338" stroke="#a8a8a8" stroke-width="1"/>

  <rect x="170" y="338" width="300" height="110" fill="none" stroke="#d0d0d0" stroke-width="1"/>
  <text x="184" y="362" fill="#efefef" font-family="monospace" font-size="12">ACTOR act_0y4hm8xs...   stopped</text>
  <text x="184" y="384" fill="#cfcfcf" font-family="monospace" font-size="11">provider: opencode/server</text>
  <text x="184" y="404" fill="#cfcfcf" font-family="monospace" font-size="11">sub: frontend, routing, +2</text>

  <rect x="570" y="338" width="300" height="110" fill="none" stroke="#d0d0d0" stroke-width="1"/>
  <text x="584" y="362" fill="#efefef" font-family="monospace" font-size="12">ACTOR act_2h2bd5ph...   running</text>
  <text x="584" y="384" fill="#cfcfcf" font-family="monospace" font-size="11">provider: opencode/server</text>
  <text x="584" y="404" fill="#cfcfcf" font-family="monospace" font-size="11">sub: explore, scripts</text>

  <text x="24" y="526" fill="#9e9e9e" font-family="monospace" font-size="11">Simple TUI-style: monospace labels, boxy nodes, no decorative effects.</text>
</svg>
