<svg xmlns="http://www.w3.org/2000/svg" width="1200" height="780" viewBox="0 0 1200 780">
  <!-- ===== BACKGROUND ===== -->
  <rect width="1200" height="780" fill="#0c1018"/>

  <!-- ===== OUTER FRAME ===== -->
  <rect x="16" y="12" width="1168" height="756" fill="none" stroke="#606060" stroke-width="1"/>

  <!-- ===== TITLE BAR ===== -->
  <rect x="16" y="12" width="1168" height="28" fill="none" stroke="#404040" stroke-width="0.5"/>
  <rect x="16" y="12" width="4" height="28" fill="#b0b0b0"/>
  <text x="32" y="31" fill="#d8d8d8" font-family="Menlo,monospace" font-size="12" font-weight="700" letter-spacing="1">CANDIDATE C</text>
  <text x="165" y="31" fill="#606060" font-family="Menlo,monospace" font-size="10">Nested Column Stack // unified panel</text>
  <rect x="1058" y="18" width="38" height="16" fill="none" stroke="#505050" stroke-width="1"/>
  <text x="1064" y="30" fill="#a0a0a0" font-family="Menlo,monospace" font-size="9">3 V</text>
  <rect x="1102" y="18" width="38" height="16" fill="none" stroke="#505050" stroke-width="1"/>
  <text x="1108" y="30" fill="#a0a0a0" font-family="Menlo,monospace" font-size="9">4 A</text>
  <rect x="1146" y="18" width="32" height="16" fill="none" stroke="#505050" stroke-width="1"/>
  <text x="1150" y="30" fill="#808080" font-family="Menlo,monospace" font-size="9">8s</text>

  <!-- ================================================================ -->
  <!-- PRODUCT HEADER — full width, top bar                             -->
  <!-- ================================================================ -->
  <rect x="32" y="52" width="1140" height="48" fill="none" stroke="#c0c0c0" stroke-width="1.5"/>
  <rect x="32" y="52" width="4" height="48" fill="#b0b0b0"/>
  <text x="48" y="72" fill="#e8e8e8" font-family="Menlo,monospace" font-size="13" font-weight="700">PRODUCT</text>
  <text x="140" y="72" fill="#909090" font-family="Menlo,monospace" font-size="11">prd_2o02efhj</text>
  <text x="48" y="90" fill="#606060" font-family="Menlo,monospace" font-size="9">@git://.../dark-factory#main</text>
  <!-- status + counts -->
  <text x="380" y="90" fill="#484848" font-family="Menlo,monospace" font-size="9">dirty</text>
  <rect x="1060" y="58" width="38" height="16" fill="none" stroke="#606060" stroke-width="0.75"/>
  <text x="1066" y="70" fill="#909090" font-family="Menlo,monospace" font-size="9">3 V</text>
  <rect x="1104" y="58" width="38" height="16" fill="none" stroke="#606060" stroke-width="0.75"/>
  <text x="1110" y="70" fill="#909090" font-family="Menlo,monospace" font-size="9">4 A</text>

  <!-- ================================================================ -->
  <!-- VARIANT COLUMNS — each is a bordered column, stacking downward   -->
  <!-- Columns laid out left-to-right, each contains variant header,    -->
  <!-- then actors stacked vertically, each with sub-agent grid below   -->
  <!-- ================================================================ -->

  <!-- Column dividers (soft background columns) -->
  <rect x="32" y="112" width="370" height="504" fill="none" stroke="#222222" stroke-width="1"/>
  <rect x="412" y="112" width="370" height="504" fill="none" stroke="#222222" stroke-width="1"/>
  <rect x="792" y="112" width="380" height="504" fill="none" stroke="#222222" stroke-width="1"/>


  <!-- ================================================================ -->
  <!-- COLUMN 1: default — 2 actors                                     -->
  <!-- ================================================================ -->

  <!-- Variant header -->
  <rect x="48" y="120" width="338" height="30" fill="none" stroke="#a8a8a8" stroke-width="1"/>
  <rect x="48" y="120" width="3" height="30" fill="#909090"/>
  <text x="62" y="140" fill="#e0e0e0" font-family="Menlo,monospace" font-size="12" font-weight="700">default</text>
  <rect x="330" y="126" width="44" height="18" fill="none" stroke="#505050" stroke-width="0.75"/>
  <text x="338" y="139" fill="#888888" font-family="Menlo,monospace" font-size="9">dirty</text>
  <!-- actor count chip -->
  <rect x="278" y="126" width="42" height="18" fill="none" stroke="#404040" stroke-width="0.75"/>
  <text x="286" y="139" fill="#686868" font-family="Menlo,monospace" font-size="9">2 A</text>

  <!-- connector to first actor -->
  <line x1="217" y1="150" x2="217" y2="168" stroke="#686868" stroke-width="1"/>

  <!-- ACTOR A1 -->
  <rect x="48" y="168" width="338" height="48" fill="none" stroke="#c0c0c0" stroke-width="1.5"/>
  <rect x="48" y="168" width="4" height="48" fill="#c0c0c0"/>
  <text x="62" y="188" fill="#e8e8e8" font-family="Menlo,monospace" font-size="10" font-weight="700">ACTOR</text>
  <text x="114" y="188" fill="#c0c0c0" font-family="Menlo,monospace" font-size="9">act_2h2bd5ph</text>
  <rect x="336" y="174" width="38" height="14" fill="none" stroke="#686868" stroke-width="1"/>
  <text x="342" y="185" fill="#70b070" font-family="Menlo,monospace" font-size="9">run</text>
  <text x="62" y="206" fill="#707070" font-family="Menlo,monospace" font-size="8">opencode/server</text>

  <!-- A1 sub-agent grid -->
  <line x1="217" y1="216" x2="217" y2="226" stroke="#505050" stroke-width="1"/>
  <rect x="48" y="226" width="338" height="42" fill="none" stroke="#505050" stroke-width="1"/>
  <text x="58" y="238" fill="#606060" font-family="Menlo,monospace" font-size="8">sub-agents</text>
  <text x="376" y="238" fill="#505050" font-family="Menlo,monospace" font-size="8" text-anchor="end">x3</text>
  <line x1="48" y1="242" x2="386" y2="242" stroke="#404040" stroke-width="0.5"/>
  <rect x="52" y="246" width="102" height="16" fill="none" stroke="#606060" stroke-width="0.75"/>
  <text x="62" y="258" fill="#a0a0a0" font-family="Menlo,monospace" font-size="8">explore</text>
  <rect x="160" y="246" width="102" height="16" fill="none" stroke="#606060" stroke-width="0.75"/>
  <text x="172" y="258" fill="#a0a0a0" font-family="Menlo,monospace" font-size="8">docs</text>
  <rect x="268" y="246" width="112" height="16" fill="none" stroke="#606060" stroke-width="0.75"/>
  <text x="278" y="258" fill="#a0a0a0" font-family="Menlo,monospace" font-size="8">gitter</text>

  <!-- spacer + connector to A2 -->
  <line x1="217" y1="268" x2="217" y2="290" stroke="#585858" stroke-width="1" stroke-dasharray="2 3"/>

  <!-- ACTOR A2 -->
  <rect x="48" y="290" width="338" height="48" fill="none" stroke="#c0c0c0" stroke-width="1.5"/>
  <rect x="48" y="290" width="4" height="48" fill="#c0c0c0"/>
  <text x="62" y="310" fill="#e8e8e8" font-family="Menlo,monospace" font-size="10" font-weight="700">ACTOR</text>
  <text x="114" y="310" fill="#c0c0c0" font-family="Menlo,monospace" font-size="9">act_9xk3r4qm</text>
  <rect x="336" y="296" width="38" height="14" fill="none" stroke="#686868" stroke-width="1"/>
  <text x="340" y="307" fill="#a08080" font-family="Menlo,monospace" font-size="9">stop</text>
  <text x="62" y="328" fill="#707070" font-family="Menlo,monospace" font-size="8">opencode/server</text>

  <!-- A2 sub-agent grid -->
  <line x1="217" y1="338" x2="217" y2="348" stroke="#505050" stroke-width="1"/>
  <rect x="48" y="348" width="338" height="42" fill="none" stroke="#505050" stroke-width="1"/>
  <text x="58" y="360" fill="#606060" font-family="Menlo,monospace" font-size="8">sub-agents</text>
  <text x="376" y="360" fill="#505050" font-family="Menlo,monospace" font-size="8" text-anchor="end">x2</text>
  <line x1="48" y1="364" x2="386" y2="364" stroke="#404040" stroke-width="0.5"/>
  <rect x="52" y="368" width="158" height="16" fill="none" stroke="#606060" stroke-width="0.75"/>
  <text x="62" y="380" fill="#a0a0a0" font-family="Menlo,monospace" font-size="8">frontend</text>
  <rect x="216" y="368" width="164" height="16" fill="none" stroke="#606060" stroke-width="0.75"/>
  <text x="226" y="380" fill="#a0a0a0" font-family="Menlo,monospace" font-size="8">designer</text>


  <!-- ================================================================ -->
  <!-- COLUMN 2: clone_0001 — 1 actor                                   -->
  <!-- ================================================================ -->

  <!-- Variant header -->
  <rect x="428" y="120" width="338" height="30" fill="none" stroke="#a8a8a8" stroke-width="1"/>
  <rect x="428" y="120" width="3" height="30" fill="#909090"/>
  <text x="442" y="140" fill="#e0e0e0" font-family="Menlo,monospace" font-size="12" font-weight="700">clone_0001</text>
  <rect x="710" y="126" width="44" height="18" fill="none" stroke="#505050" stroke-width="0.75"/>
  <text x="716" y="139" fill="#888888" font-family="Menlo,monospace" font-size="9">clean</text>
  <rect x="658" y="126" width="42" height="18" fill="none" stroke="#404040" stroke-width="0.75"/>
  <text x="666" y="139" fill="#686868" font-family="Menlo,monospace" font-size="9">1 A</text>

  <!-- connector to actor -->
  <line x1="597" y1="150" x2="597" y2="168" stroke="#686868" stroke-width="1"/>

  <!-- ACTOR A3 -->
  <rect x="428" y="168" width="338" height="48" fill="none" stroke="#c0c0c0" stroke-width="1.5"/>
  <rect x="428" y="168" width="4" height="48" fill="#c0c0c0"/>
  <text x="442" y="188" fill="#e8e8e8" font-family="Menlo,monospace" font-size="10" font-weight="700">ACTOR</text>
  <text x="494" y="188" fill="#c0c0c0" font-family="Menlo,monospace" font-size="9">act_0y4hm8xs</text>
  <rect x="716" y="174" width="38" height="14" fill="none" stroke="#686868" stroke-width="1"/>
  <text x="722" y="185" fill="#70b070" font-family="Menlo,monospace" font-size="9">run</text>
  <text x="442" y="206" fill="#707070" font-family="Menlo,monospace" font-size="8">opencode/server</text>

  <!-- A3 sub-agent grid (3 sub-agents, 2-col wrap) -->
  <line x1="597" y1="216" x2="597" y2="226" stroke="#505050" stroke-width="1"/>
  <rect x="428" y="226" width="338" height="58" fill="none" stroke="#505050" stroke-width="1"/>
  <text x="438" y="238" fill="#606060" font-family="Menlo,monospace" font-size="8">sub-agents</text>
  <text x="756" y="238" fill="#505050" font-family="Menlo,monospace" font-size="8" text-anchor="end">x3</text>
  <line x1="428" y1="242" x2="766" y2="242" stroke="#404040" stroke-width="0.5"/>
  <rect x="432" y="246" width="158" height="16" fill="none" stroke="#606060" stroke-width="0.75"/>
  <text x="442" y="258" fill="#a0a0a0" font-family="Menlo,monospace" font-size="8">planner</text>
  <rect x="596" y="246" width="164" height="16" fill="none" stroke="#606060" stroke-width="0.75"/>
  <text x="606" y="258" fill="#a0a0a0" font-family="Menlo,monospace" font-size="8">senior</text>
  <rect x="432" y="266" width="158" height="16" fill="none" stroke="#606060" stroke-width="0.75"/>
  <text x="442" y="278" fill="#a0a0a0" font-family="Menlo,monospace" font-size="8">junior</text>


  <!-- ================================================================ -->
  <!-- COLUMN 3: feature/auth — no actors                               -->
  <!-- ================================================================ -->

  <!-- Variant header -->
  <rect x="808" y="120" width="348" height="30" fill="none" stroke="#a8a8a8" stroke-width="1"/>
  <rect x="808" y="120" width="3" height="30" fill="#909090"/>
  <text x="822" y="140" fill="#e0e0e0" font-family="Menlo,monospace" font-size="12" font-weight="700">feature/auth</text>
  <rect x="1100" y="126" width="44" height="18" fill="none" stroke="#505050" stroke-width="0.75"/>
  <text x="1108" y="139" fill="#888888" font-family="Menlo,monospace" font-size="9">clean</text>
  <rect x="1048" y="126" width="42" height="18" fill="none" stroke="#404040" stroke-width="0.75"/>
  <text x="1056" y="139" fill="#686868" font-family="Menlo,monospace" font-size="9">0 A</text>

  <!-- empty actor placeholder -->
  <line x1="982" y1="150" x2="982" y2="172" stroke="#383838" stroke-width="1" stroke-dasharray="2 4"/>
  <rect x="904" y="172" width="156" height="28" fill="none" stroke="#3a3a3a" stroke-width="1" stroke-dasharray="4 3"/>
  <text x="982" y="190" fill="#404040" font-family="Menlo,monospace" font-size="9" text-anchor="middle">no actors</text>


  <!-- ================================================================ -->
  <!-- TOPOLOGY SUMMARY — bottom of col 3                               -->
  <!-- ================================================================ -->
  <rect x="808" y="420" width="348" height="100" fill="none" stroke="#505050" stroke-width="1"/>
  <text x="822" y="440" fill="#808080" font-family="Menlo,monospace" font-size="10" font-weight="700">TOPOLOGY</text>
  <line x1="822" y1="446" x2="1140" y2="446" stroke="#404040" stroke-width="0.5"/>
  <text x="822" y="462" fill="#707070" font-family="Menlo,monospace" font-size="9">variants ...... 3</text>
  <text x="822" y="478" fill="#707070" font-family="Menlo,monospace" font-size="9">actors ........ 3</text>
  <text x="822" y="494" fill="#707070" font-family="Menlo,monospace" font-size="9">sub-agents .... 8</text>
  <text x="822" y="510" fill="#505050" font-family="Menlo,monospace" font-size="8">run: 2  stop: 1  empty: 1</text>


  <!-- ================================================================ -->
  <!-- LEGEND — bottom                                                   -->
  <!-- ================================================================ -->
  <line x1="28" y1="648" x2="1172" y2="648" stroke="#383838" stroke-width="0.5"/>
  <text x="600" y="644" fill="#404040" font-family="Menlo,monospace" font-size="8" text-anchor="middle">LEGEND</text>

  <!-- column -->
  <rect x="48" y="668" width="28" height="18" fill="none" stroke="#222222" stroke-width="1"/>
  <text x="84" y="680" fill="#606060" font-family="Menlo,monospace" font-size="9">column (per variant)</text>

  <!-- product -->
  <rect x="250" y="668" width="16" height="12" fill="none" stroke="#c0c0c0" stroke-width="1.5"/>
  <rect x="250" y="668" width="3" height="12" fill="#b0b0b0"/>
  <text x="272" y="679" fill="#606060" font-family="Menlo,monospace" font-size="9">product</text>

  <!-- variant -->
  <rect x="348" y="668" width="16" height="12" fill="none" stroke="#a8a8a8" stroke-width="1"/>
  <rect x="348" y="668" width="3" height="12" fill="#909090"/>
  <text x="370" y="679" fill="#606060" font-family="Menlo,monospace" font-size="9">variant</text>

  <!-- stacked actor -->
  <rect x="442" y="666" width="14" height="10" fill="none" stroke="#c0c0c0" stroke-width="1"/>
  <rect x="442" y="678" width="14" height="10" fill="none" stroke="#c0c0c0" stroke-width="1"/>
  <line x1="449" y1="676" x2="449" y2="678" stroke="#585858" stroke-width="1" stroke-dasharray="1 1"/>
  <text x="464" y="679" fill="#606060" font-family="Menlo,monospace" font-size="9">stacked actors</text>

  <!-- sub-agent grid -->
  <rect x="590" y="668" width="24" height="12" fill="none" stroke="#505050" stroke-width="1"/>
  <rect x="592" y="670" width="9" height="8" fill="none" stroke="#606060" stroke-width="0.5"/>
  <rect x="603" y="670" width="9" height="8" fill="none" stroke="#606060" stroke-width="0.5"/>
  <text x="620" y="679" fill="#606060" font-family="Menlo,monospace" font-size="9">sub-grid</text>

  <!-- status -->
  <text x="48" y="706" fill="#505050" font-family="Menlo,monospace" font-size="8">status:</text>
  <rect x="112" y="696" width="32" height="14" fill="none" stroke="#505050" stroke-width="0.75"/>
  <text x="118" y="707" fill="#70b070" font-family="Menlo,monospace" font-size="9">run</text>
  <rect x="152" y="696" width="38" height="14" fill="none" stroke="#505050" stroke-width="0.75"/>
  <text x="158" y="707" fill="#a08080" font-family="Menlo,monospace" font-size="9">stop</text>

  <!-- concept note -->
  <text x="280" y="706" fill="#383838" font-family="Menlo,monospace" font-size="8">Each variant = column  |  Actors stack vertically  |  Sub-grids inline  |  Widest column wins</text>


  <!-- ===== BOTTOM CAPTION BAR ===== -->
  <rect x="16" y="740" width="1168" height="1" fill="#585858"/>
  <text x="600" y="762" fill="#888888" font-family="Menlo,monospace" font-size="12" font-weight="700" text-anchor="middle" letter-spacing="2">Round11 Candidate C // Nested Column Stack</text>
</svg>
