<svg xmlns="http://www.w3.org/2000/svg" width="1100" height="560" viewBox="0 0 1100 560">
  <!-- background -->
  <rect width="1100" height="560" fill="#0b0f15"/>

  <!-- outer frame -->
  <rect x="20" y="20" width="1060" height="520" fill="none" stroke="#9a9a9a" stroke-width="1"/>

  <!-- ===== PRODUCT NODE (left-aligned, upper) ===== -->
  <rect x="60" y="44" width="360" height="56" fill="none" stroke="#d0d0d0" stroke-width="1.5"/>
  <rect x="60" y="44" width="4" height="56" fill="#d0d0d0"/>
  <text x="78" y="68" fill="#f0f0f0" font-family="Menlo,monospace" font-size="14" font-weight="700">PRODUCT  prd_2o02efhj</text>
  <text x="78" y="86" fill="#b8b8b8" font-family="Menlo,monospace" font-size="11">dirty  2v  2a  @git://.../dark-factory#main</text>

  <!-- ===== HORIZONTAL RAIL ===== -->
  <!-- product right-stem to rail -->
  <line x1="420" y1="72" x2="480" y2="72" stroke="#aaaaaa" stroke-width="1" stroke-dasharray="4 3"/>
  <line x1="480" y1="72" x2="480" y2="120" stroke="#aaaaaa" stroke-width="1" stroke-dasharray="4 3"/>

  <!-- rail line -->
  <line x1="140" y1="120" x2="1020" y2="120" stroke="#c8c8c8" stroke-width="2"/>
  <!-- rail end caps -->
  <rect x="136" y="117" width="8" height="6" fill="#c8c8c8"/>
  <rect x="1016" y="117" width="8" height="6" fill="#c8c8c8"/>

  <!-- rail ticks -->
  <line x1="340" y1="112" x2="340" y2="128" stroke="#c8c8c8" stroke-width="2"/>
  <line x1="760" y1="112" x2="760" y2="128" stroke="#c8c8c8" stroke-width="2"/>

  <!-- ===== LEFT COLUMN — STAGGERED HIGH (x=340 center) ===== -->

  <!-- variant card (immediately below rail) -->
  <line x1="340" y1="128" x2="340" y2="148" stroke="#b0b0b0" stroke-width="1"/>
  <rect x="240" y="148" width="200" height="40" fill="none" stroke="#c8c8c8" stroke-width="1"/>
  <text x="254" y="170" fill="#eeeeee" font-family="Menlo,monospace" font-size="12" font-weight="700">clone_0000</text>
  <text x="392" y="170" fill="#999999" font-family="Menlo,monospace" font-size="10">clean</text>

  <!-- variant to actor connector -->
  <line x1="340" y1="188" x2="340" y2="210" stroke="#909090" stroke-width="1"/>

  <!-- actor card (compact, high position) -->
  <rect x="180" y="210" width="320" height="80" fill="none" stroke="#d0d0d0" stroke-width="1.5"/>
  <rect x="180" y="210" width="4" height="80" fill="#d0d0d0"/>
  <text x="198" y="232" fill="#f0f0f0" font-family="Menlo,monospace" font-size="12" font-weight="700">ACTOR  act_0y4hm8xs</text>
  <rect x="430" y="220" width="58" height="18" fill="none" stroke="#888888" stroke-width="1"/>
  <text x="438" y="233" fill="#bbbbbb" font-family="Menlo,monospace" font-size="10">stopped</text>
  <text x="198" y="250" fill="#aaaaaa" font-family="Menlo,monospace" font-size="11">provider: opencode/server</text>
  <text x="198" y="270" fill="#808080" font-family="Menlo,monospace" font-size="10">sub-agents:</text>
  <!-- sub-agent separator -->
  <line x1="198" y1="276" x2="486" y2="276" stroke="#555555" stroke-width="0.5"/>

  <!-- sub-agent drop connectors -->
  <line x1="250" y1="290" x2="250" y2="308" stroke="#808080" stroke-width="1"/>
  <line x1="340" y1="290" x2="340" y2="308" stroke="#808080" stroke-width="1"/>
  <line x1="430" y1="290" x2="430" y2="308" stroke="#808080" stroke-width="1"/>

  <!-- sub-agent mini nodes (left column) -->
  <rect x="204" y="308" width="92" height="28" fill="none" stroke="#999999" stroke-width="1"/>
  <text x="216" y="326" fill="#cccccc" font-family="Menlo,monospace" font-size="10">sa:frontend</text>

  <rect x="304" y="308" width="72" height="28" fill="none" stroke="#999999" stroke-width="1"/>
  <text x="316" y="326" fill="#cccccc" font-family="Menlo,monospace" font-size="10">sa:docs</text>

  <rect x="384" y="308" width="92" height="28" fill="none" stroke="#999999" stroke-width="1"/>
  <text x="396" y="326" fill="#cccccc" font-family="Menlo,monospace" font-size="10">sa:routing</text>

  <!-- ===== RIGHT COLUMN — STAGGERED LOW (x=760 center) ===== -->

  <!-- variant card (dropped lower from rail, offset stagger) -->
  <line x1="760" y1="128" x2="760" y2="180" stroke="#b0b0b0" stroke-width="1"/>
  <!-- horizontal step marker on the longer connector -->
  <line x1="752" y1="154" x2="768" y2="154" stroke="#666666" stroke-width="0.5"/>

  <rect x="660" y="180" width="200" height="40" fill="none" stroke="#c8c8c8" stroke-width="1"/>
  <text x="674" y="202" fill="#eeeeee" font-family="Menlo,monospace" font-size="12" font-weight="700">default</text>
  <text x="812" y="202" fill="#999999" font-family="Menlo,monospace" font-size="10">dirty</text>

  <!-- variant to actor connector (longer drop) -->
  <line x1="760" y1="220" x2="760" y2="256" stroke="#909090" stroke-width="1"/>

  <!-- actor card (lower position, staggered from left) -->
  <rect x="600" y="256" width="320" height="80" fill="none" stroke="#d0d0d0" stroke-width="1.5"/>
  <rect x="600" y="256" width="4" height="80" fill="#d0d0d0"/>
  <text x="618" y="278" fill="#f0f0f0" font-family="Menlo,monospace" font-size="12" font-weight="700">ACTOR  act_2h2bd5ph</text>
  <rect x="850" y="266" width="58" height="18" fill="none" stroke="#888888" stroke-width="1"/>
  <text x="858" y="279" fill="#bbbbbb" font-family="Menlo,monospace" font-size="10">running</text>
  <text x="618" y="296" fill="#aaaaaa" font-family="Menlo,monospace" font-size="11">provider: opencode/server</text>
  <text x="618" y="316" fill="#808080" font-family="Menlo,monospace" font-size="10">sub-agents:</text>
  <!-- sub-agent separator -->
  <line x1="618" y1="322" x2="906" y2="322" stroke="#555555" stroke-width="0.5"/>

  <!-- sub-agent drop connectors -->
  <line x1="700" y1="336" x2="700" y2="354" stroke="#808080" stroke-width="1"/>
  <line x1="820" y1="336" x2="820" y2="354" stroke="#808080" stroke-width="1"/>

  <!-- sub-agent mini nodes (right column) -->
  <rect x="650" y="354" width="100" height="28" fill="none" stroke="#999999" stroke-width="1"/>
  <text x="662" y="372" fill="#cccccc" font-family="Menlo,monospace" font-size="10">sa:explore</text>

  <rect x="770" y="354" width="100" height="28" fill="none" stroke="#999999" stroke-width="1"/>
  <text x="782" y="372" fill="#cccccc" font-family="Menlo,monospace" font-size="10">sa:scripts</text>

  <!-- ===== STAGGER GUIDE LINES (subtle depth indicators) ===== -->
  <!-- dashed horizontal showing the two stagger levels -->
  <line x1="40" y1="210" x2="160" y2="210" stroke="#333333" stroke-width="0.5" stroke-dasharray="2 3"/>
  <line x1="40" y1="256" x2="160" y2="256" stroke="#333333" stroke-width="0.5" stroke-dasharray="2 3"/>
  <!-- depth labels -->
  <text x="44" y="207" fill="#444444" font-family="Menlo,monospace" font-size="8">L0</text>
  <text x="44" y="253" fill="#444444" font-family="Menlo,monospace" font-size="8">L1</text>

  <!-- ===== LEGEND ROW ===== -->
  <line x1="40" y1="420" x2="1060" y2="420" stroke="#444444" stroke-width="0.5"/>

  <!-- legend: rail -->
  <line x1="60" y1="442" x2="100" y2="442" stroke="#c8c8c8" stroke-width="2"/>
  <text x="108" y="446" fill="#888888" font-family="Menlo,monospace" font-size="10">rail</text>

  <!-- legend: variant -->
  <rect x="170" y="434" width="18" height="14" fill="none" stroke="#c8c8c8" stroke-width="1"/>
  <text x="194" y="446" fill="#888888" font-family="Menlo,monospace" font-size="10">variant</text>

  <!-- legend: actor -->
  <rect x="280" y="434" width="18" height="14" fill="none" stroke="#d0d0d0" stroke-width="1.5"/>
  <rect x="280" y="434" width="3" height="14" fill="#d0d0d0"/>
  <text x="304" y="446" fill="#888888" font-family="Menlo,monospace" font-size="10">actor</text>

  <!-- legend: sub-agent -->
  <rect x="380" y="434" width="18" height="14" fill="none" stroke="#999999" stroke-width="1"/>
  <text x="404" y="446" fill="#888888" font-family="Menlo,monospace" font-size="10">sub-agent</text>

  <!-- legend: connector -->
  <line x1="510" y1="434" x2="510" y2="448" stroke="#909090" stroke-width="1"/>
  <text x="520" y="446" fill="#888888" font-family="Menlo,monospace" font-size="10">connector</text>

  <!-- legend: stagger depth -->
  <line x1="630" y1="442" x2="660" y2="442" stroke="#333333" stroke-width="0.5" stroke-dasharray="2 3"/>
  <text x="668" y="446" fill="#888888" font-family="Menlo,monospace" font-size="10">depth level</text>

  <!-- ===== BOTTOM CAPTION BAR ===== -->
  <rect x="20" y="510" width="1060" height="1" fill="#666666"/>
  <text x="550" y="534" fill="#999999" font-family="Menlo,monospace" font-size="12" font-weight="700" text-anchor="middle" letter-spacing="2">Round8 Station D B</text>
</svg>
